<?xml version="1.0" encoding="UTF-8"?>
<svg version="1.1" viewBox="0 0 1600 1600" width="1280" height="1280" xmlns="http://www.w3.org/2000/svg">
<path transform="translate(833)" d="m0 0h60l25 6 29 7 41 11 72 21 70 21 67 18 69 17 63 14 40 7 26 3 14 1h11l23-2 36-6 39-9 32-8 10-2h11l10 6 9 8 5 5 4 5 1 4v11l-2 9v7l2 8v271l-8 6-9 7-15 5-26 4-40 6-30 7-47 14-36 12-41 14-42 12-21 4-31 4-28 2h-15l-26-2-33-4-26-4-23-5-29-8-26-9-26-12-22-13-30-20-17-12-19-14-16-12-34-24-16-10-21-12-15-7-20-7-11-3-7-1h-18l-71 12-38 4-24 2h-27l-33-4-20-5-16-7-16-10-9-7-12-11-9-11-8-10h-7l-42 13-48 14-68 16-78 15-53 7-44 4h-54l-27-4-21-5-16-6-13-8-8-7-7-8-7-9v-24l6-14 10-14 9-7 25-12 21-8 34-12 44-15 28-9 73-24 25-8 58-19 222-74 43-14 37-12 68-21 63-19 52-15 14-4zm25 41-20 3-30 7-50 14-47 14-82 26-74 24-36 12-37 12-31 10-108 36-70 23-43 14-36 12-40 13-38 13-36 12-20 7-19 9-2 2 1 6 7 8 13 6 12 4 23 3 25 1h42l25-1 35-4 35-6 53-11 41-10 38-10 35-10 62-20 25-9 27-9 79-29 38-13 30-9 28-7 23-4 12-1h21l21 2 36 6 34 8 47 14 24 4 81 8 17 1h15l-1 4-11-1h-79l-46-3-21-3-36-7-20-4-25-3-14-1h-48l-19 3-24 7-30 11-40 16-25 11-30 13-32 13-10 5-4 3 2 4 10 9 11 8 11 7 16 8 15 5 21 3h32l31-3 36-7 33-6 23-3h35l21 4 17 6 18 8 21 11 24 15 22 15 19 14 14 10 18 13 17 12 22 15 21 13 17 9 25 10 29 8 38 8 30 4 30 2h43l22-2 26-5 26-7 53-18 36-13 40-12 32-8 39-7 29-4 3-1 1-200 1-70-19 4-37 9-31 6-32 5-28 2-28-1-17-2-42-8-36-7-83-20-67-18-117-34-57-16-58-14-26-5-7-1z" fill="#EF7D12"/>
<path transform="translate(368,1069)" d="m0 0h14l33 2 46 6 31 6 31 9 25 9 27 12 20 11 22 14 17 12 14 10 17 12 19 14 16 11 23 16 15 9 19 11 21 9 17 4 9 1h22l26-3 53-9 32-4 13-1h34l25 3 23 5 16 6 16 9 13 10 9 9 2 1v2l4 2v2h2l9 12 1 3 6 2 12-2 24-8 41-12 48-13 41-10 33-7 52-9 37-5 22-2 20-1h59l27 3 20 5 19 7 12 7 20 18 3 3v39l-11 13-7 7-22 12-25 10-90 30-43 14-33 11-92 30-37 12-99 33-25 8-72 24-64 21-93 30-48 14-50 14-28 8h-58l-31-8-42-12-30-8-44-13-77-23-63-17-62-16-71-16-20-4-50-8-15-2h-22l-34 5-40 8-26 6-28 7-9 1h-11l-7-4-7-9-13-13-1-2v-295l4-10 9-8 8-4 16-4 56-12 42-10 36-10 32-10 24-9 40-14 29-8 24-5 26-3zm-25 44-27 3-25 5-23 7-41 14-47 16-27 8-40 10-54 10-16 4v231l1 39 6-1 14-5 21-6 41-9 38-6 9-1h32l37 5 42 8 39 8 80 20 54 14 55 16 55 17 60 17 38 10 37 8 22 3h30l23-5 35-9 70-21 53-17 47-15 96-32 44-14 108-36 40-13 36-12 70-23 25-8 36-12 41-13 33-10 24-7 13-5 6-5 3-8v-6l-6-8-8-4-12-3-15-2-36-2h-28l-40 2-39 4-35 5-30 6-58 14-66 18-34 10-36 12-41 14-29 11-30 11-31 11-47 15-36 10-24 6-16 2-14 1h-17l-31-3-30-6-32-8-57-13-34-6-42-4-47-3-1-1 22-1h66l28 2 51 6 44 8 20 3 28 3h41l25-5 24-7 34-13 24-10 33-14 17-8 36-15 16-7 6-4-2-4-9-9-18-13-15-8-15-5-19-3-14-1h-16l-38 3-31 4-52 9-17 2h-22l-25-4-16-5-24-10-26-15-30-20-72-52-22-15-16-10-22-12-21-9-21-7-32-8-20-4-21-3-29-2z" fill="#EF7D12"/>
<path transform="translate(783,529)" d="m0 0h34l32 3 25 5 20 7 29 13 21 12 16 11 14 11 10 9 8 7 12 12 11 14 10 14 13 21 9 17 10 25 7 22 4 19 2 15 1 13v27l-1 22-4 29-5 21-8 24-12 25-8 14-16 23-8 10-12 14-8 7-11 11-20 15-17 11-20 11-21 9-29 9-21 5-24 3-14 1h-31l-22-2-24-4-25-7-29-12-22-12-12-8-11-8-11-9-10-9-12-12-7-8-10-12-10-14-9-15-11-20-9-21-8-23-4-15-4-23-1-10v-51l3-23 6-25 9-27 8-18 13-23 7-10 13-19 12-14 9-10 11-11 17-13 18-12 19-11 19-9 20-8 24-7 23-4zm-6 41-22 3-21 5-17 6-18 8-17 9-14 10-14 11-10 9-15 15-10 13-14 20-13 25-5 11-9 25-5 21-2 13-1 12v32l2 20 6 26 7 19 8 19 9 16 10 15 14 17 24 24 14 11 13 9 16 9 16 8 22 9 21 6 26 4 11 1h27l24-3 30-7 21-8 20-10 19-12 18-14 10-8 16-16 13-17 13-19 8-14 8-18 6-17 6-28 2-16v-46l-4-27-4-17-8-22-11-23-11-18-10-14-9-10-7-8-7-7-8-7-13-10-21-14-21-11-15-6-25-8-26-5-12-1z" fill="#EF7D12"/>
<path transform="translate(798,663)" d="m0 0h8l5 3 3 9 2 16 2 4 8 3 21 4 6 3 5 4 2 4v10l-5 9-2 1h-16l-15-4-7-1h-17l-15 6-4 2-2 4-2 9 3 9 5 5 9 6 17 9 23 11 14 8 10 9 8 11 5 14 1 5v11l-3 12-8 14-5 6-8 7-7 6-16 5-3 2-4 12-2 12-3 6-8 10-6-2-6-4-5-8-3-8-3-10-2-4-5-2-19-3-12-4-3-3-3-7v-17l3-7 1-1 9 1 18 5 14 4 10 1 20-4 9-5 5-5 3-7v-8l-3-6-5-5-10-7-25-12-19-9-10-8-6-5-10-14-4-10-1-4v-12l2-10 8-16 11-11 11-7 13-6 4-2 4-20 3-8z" fill="#EF7D12"/>
</svg>
