<?xml version="1.0" encoding="UTF-8"?>
<svg version="1.1" viewBox="0 0 1600 1600" width="100" height="100" xmlns="http://www.w3.org/2000/svg">
<path transform="translate(887,48)" d="m0 0h42l30 3 25 4 25 7 24 9 18 8 17 9 19 12 20 14 14 11 10 9 19 19 9 11 13 18 11 19 9 17 8 19 8 21 6 24 5 28 3 22 1 13v21l-2 17-4 23 3 7 12 14 10 13 9 14 6 15 3 14 1 11v17l-3 17-5 13-9 15-9 11-4 5-11 9-10 7-15 6-16 4-16 3-2 21-4 24-8 36-9 27-9 21-13 23-9 14-13 17-11 12-7 7-7 8-9 10-2 4-1 6v39l5 14 6 7 8 3 14 3 70 8 121 15 35 6 26 7 20 8 16 9 12 9 11 9 8 7 7 8 11 14 11 19 9 19 5 15 4 22 1 21v348l-1 27-4 18-5 12-8 12-7 9-12 12-13 8-15 5-14 3-36 3-26 1h-73l-32-2-22-3-38-10-38-12-52-17-38-12-58-19-40-12-25-6-6 1-10 7-14 3-12 2-6 3-2 2-1 6 4 7 4 14v32l-4 10-4 3-16 2-227 1h-120l-38-2-23-3-15-5-14-8-10-9-8-9-9-13-8-17-5-17-2-13-1-14-1-258-2-24-6-25-13-37-14-41-18-57-8-26-10-34-12-41-8-28-14-38-22-56-5-24 2-7 7-6 14-6 6-3-2-4-14-20-12-17-13-17-14-18-10-14-13-18-20-26-14-18-11-14-16-21-12-16-11-17-6-11v-14l5-25 11-41 15-60 12-44 9-32 7-26 6-17 7-11 6-6 8-1 18 5 23 12 21 12 27 15 15 9 23 13 15 9 24 14 17 10 45 26 9 6 8 8 4 8 5 23 9 64 8 52 9 65 5 29 3 20 3 21 28-4h8l6 2 5 5 6 12 13 31 11 26 11 24 14 27 9 16 9 17 10 18 10 19 12 22 18 36 8 12 1 1 14-1 21-3 37-4 29-5 10-5 2-7 1-7 2-43-3-9-7-11-12-13-8-10-14-19-13-21-10-18-11-23-7-15-21-42-9-17-11-23-8-14-7-6-14-8-14-12-10-12-11-19-5-13-4-21v-16l5-22 4-11 8-13 2-4v-9l-2-14-6-31-5-36-2-22-1-33 1-26 3-24 5-23 8-23 10-22 8-12 10-13 9-10 11-10 13-9 16-8 17-6 18-5 21-5 34-12 27-11 28-10 22-7 25-6 30-4zm13 54-26 2-25 4-22 6-28 10-27 11-42 15-22 6-17 4-16 6-13 7-8 6-9 10-8 10-10 19-5 12-5 21-2 14-2 36 1 31 2 22 5 30 4 13 3 2 7 1h27l9-2 5-10 6-16 6-15 8-28 6-28 3-22 1-15 1-58 2-17 4-10 4-3 15-4 13-1h16l31 1 23 4 24 7 17 7 19 12 11 8 14 11 11 10 8 7 10 9 12 11 11 9 14 12 10 7 16 8 16 4 6 1 18 1h117l4 1 1 23 1 54v14l8-1 1-1v-15l-3-66-1-17-12-36-9-20-12-22-12-17-12-14-12-12-8-7-17-13-17-11-16-9-19-9-31-11-28-6-16-2-15-1zm-137 124-2 3-3 63-4 26-8 37-8 26-7 18 42 1 65 1 15 1 8 4 10 14 4 3 5 1h22l28 2 10-5 14-12 10-6 8-1 122-2 12-1 1-1v-27l-1-19-4-2h-89l-24-2-19-4-17-8-11-7-14-11-11-9-11-10-8-7-10-9-8-7-12-11-11-9-16-12-17-10-13-5-9-2-13-1zm-533 91 9 20 8 19 6 15 11 27 11 28 9 21 6 15 8 11 8 5 13 5 12 11 8 16 3 8 1 5v11l-4 11-8 13-4 5-11 8-16 6-5 1h-12l-5-1-9-1-13-7-6-5-6-9-5-14-3-13v-12l6-12 1-3v-10l-9-27-14-34-18-42-11-27-6-16-4-8h-2l-12 40-12 43-13 49-2 12 2 9 9 13 13 16 48 64 11 15 42 56 16 23 12 15 8 13 4 2 20-8 41-16 31-13 10-7-1-13-13-85-11-80-7-43-6-39-3-8-7-7-17-10-19-10-22-12-21-12-25-15-23-12zm484 133-2 7-2 20v19l2 2 4 1 49 1h61l4-2 1-3v-42l-2-2-60-1zm273 0-3 1-1 7v32l1 7 2 2 5 1h50l64-1 1-1v-47l-2-1zm172 0v98l11-1 10-4 9-7 8-8 7-14 3-10v-8l-5-17-7-11-9-8-16-8-6-2zm-507 0-9 3-12 7-9 9-10 18-2 8 1 16 6 11 9 11 5 6 14 7 8 1 2-5v-90l-1-2zm236 23-2 2-2 24-6 20-7 14-7 7-12 6-14 3-17 1-109 1-1 5v63l3 24 5 22 7 20 10 23 9 16 10 15 11 13 9 10 10 11 11 9 13 11 15 9 21 10 19 6 23 4 9 1h29l18-3 25-7 21-9 17-10 13-10 10-8 17-17 8-10 8-11 11-18 11-21 8-21 7-25 5-26 3-26v-50l-7-1h-127l-10-3-8-6-7-8-7-10-8-15-3-14-1-12-3-6-10-2zm-421 229-9 3-19 8-24 9-41 16-27 11-30 11-25 9-6 4 1 7 12 31 2 3 9-1 37-15 34-13 65-26 13-5 22-8 4-2-1-7-6-23-5-12zm41 92-14 4-17 7-32 13-45 18-43 17-29 10-8 5 4 16 10 38 11 34 9 31 16 51 12 36 16 45 6 21 5 3 30-6 22-4-1-5-10-19-13-35-11-30-1-9 16-4 30-10 5 1 5 12 12 38 16 44 3 5 3 1 21 2 16 5 18 8 58 29 23 11 20 10 14 8 16 7h3l-1-6-15-35-8-21-8-19-6-15-15-37-11-25-20-45-15-32-11-23-12-25-11-22-12-22-17-33-12-22-10-18-6-7zm495 64-21 6-17 5-22 4-24 2h-28l-25-2-23-5-25-8-5 1-3 14v13l-8 20-9 14-8 9-1 3 7 8 13 13 9 8 13 9 16 9 19 8 18 5 5 1 15 1h30l16-2 25-7 23-11 16-10 13-10 17-17-1-3-13-13-8-13-5-12-2-9-3-31zm-288 94-23 3-26 4-3 1 1 5 15 33 11 26 11 25 13 30 14 35 13 34 11 30 8 20 7 8 2 1 22 1 83 9 24 2h26l68-7 93-9 36-5 16-5 16-7 36-18 22-12 41-21 15-8 13-3 18 1 38 5 29 5 31 6 9 1 2-3v-32l-2-21-4-19-5-15-6-14-8-13-11-13-10-9-14-9-14-7-23-7-32-6-75-9-64-8-41-4-7 6-7 10-12 13-11 11-11 9-7 6-16 11-16 9-16 7-26 8-24 5-17 2h-38l-26-4-24-7-20-8-20-10-18-12-10-8-10-9-15-16-14-17-7-6-2-1zm-195 225-96 18-13 3-1 1v43l1 94 9-3 15-7 33-15 24-9 8-2h18l57 9 63 12 37 8 35 9 42 13 32 10 30 10 68 21 27 9 29 9 45 14 30 10 35 11 31 10 40 13 41 13 28 9 23 5 26 3 12 1h100l17-3 14-5 10-7 6-7 7-15 3-13 1-12v-111l-1-2-21-3-101-10-369-37-148-15-44-4-24-3-20-3-18-6-58-28-62-31-9-4zm767 1-9 2-54 28-19 10-17 8-19 8-12 6 2 2 15 4 35 4 82 8 66 7 37 4h11l2-7 1-21v-38l-3-5-20-4-65-11-21-4zm-776 176-15 4-28 11-22 9-27 11-6 3-2 2-2 33v9l2 17 4 16 5 10 6 7 7 5 10 4 13 3 8 1 44 1h40l37-1 20-3 21-5 119-39 34-11 18-4 12-3 4-2-1-4-18-7-32-10-36-12-29-9-42-11-40-8-60-11-36-6zm277 138-3 3-1 4h15l-1-5-2-2z" fill="#071D39"/>
<path transform="translate(994,644)" d="m0 0h11l2 2 8 49-1 3-4 1-37 1-106 1-41-1-23-1-1-2v-7l4-21 1-17 3-7 16 1h160z" fill="#071D39"/>
<path transform="translate(437,926)" d="m0 0 5 1 6 9 9 26 2 6v6l-14 7-31 9h-6l-4-6-7-24-5-14v-6l15-4 24-9z" fill="#091F3A"/>
</svg>
