<?xml version="1.0" encoding="UTF-8"?>
<svg version="1.1" viewBox="0 0 1600 1600" width="100" height="100" xmlns="http://www.w3.org/2000/svg">
<path transform="translate(431)" d="m0 0h389l2 9 5 10v253l-1 53 21-7 28-8 34-9 43-12 89-24 60-16 73-19 54-14 27-5h13l6 5 5 12 8 27 11 43 21 80 14 55 18 67 14 55 16 62 11 42 21 80 14 54 10 38 11 41 12 47 13 50 11 42 20 77 10 38 11 43 13 51 11 40 21 83 9 32 8 32 6 20 6 13 1 2v44l-25 8-64 18-64 17-102 27-36 10-99 27-18 7h-41l-5-16-8-28-13-49-8-31-17-65-11-43-17-65-15-57-12-46-16-61-13-50-9-33-7-28-9-34-14-54-11-43-6-22-9-36-7-25-9-35-10-38-12-46-11-44-10-38-12-46-9-37-11-42-10-35-11-42-7-23-3-10-3-6v17l1 54v1056l-1 70-3 31h-815l-4-8-4-3v-1371l20-4 15-1 54-1 147-1h185l1-59 1-129 4-13zm49 55-1 1-1 52v43l1 5h289l1-1 1-20 1-42v-34l-2-4zm229 159-230 1-1 33v38l1 6h65l225-1 1-1 1-34v-40l-1-2zm-298 52-277 1h-77l-2 1v76h366l1-11 1-65-2-2zm819 7-41 12-55 15-31 8-101 27-50 14-57 15-7 3 2 12 12 46 8 29 5 19 11-1 19-5 43-12 62-17 56-15 43-11 64-17 42-10 5-2-1-7-7-25-10-42-9-35zm-475 73-191 1h-84l-1 1-1 94v570l1 264h290l1-26 1-317v-587zm-699 52-1 1v797h366l1-19 1-636v-142l-318-1zm1216 39-59 16-111 29-37 10-47 13-61 16-20 5-9 4 3 9 6 20 3 14 4 1 35-10 111-30 67-18 45-12 55-15 23-6 5-3-1-11-6-24-4-8zm26 100-44 11-36 10-116 31-40 11-64 17-39 9-3 2 4 17 13 51 11 41 10 40 10 38 8 30 13 50 11 42 11 41 11 43 13 51 8 30 10 42 11 42 7 25 3 6 3 1 17-4 25-7 41-11 54-15 74-20 53-14 64-16 10-3 1-1v-9l-13-49-11-42-13-51-13-50-11-42-15-57-12-46-13-50-8-30-16-63-15-63-7-26-4-10zm167 645-21 5-65 18-50 13-96 26-47 13-60 15-2 1 1 7 9 36 4 15 8 28 4 15 9-1 77-21 70-19 68-18 48-13 52-13 16-5 3-2-1-11-20-80-3-8zm-1409 72-1 6v72h92l275-1 1-31v-45l-1-1zm700 80-277 1v49l38 1h249l3-1v-50zm747 5-34 9-37 10-202 54-60 15-5 3 7 27 6 28 8 30 7 21 10-1 25-7 39-10 70-19 63-17 72-19 49-12 10-3 4-4-2-14-9-41-9-35-6-15zm-1146 47-302 1v156l73 1h293l1-1v-156l-1-1zm121 52v104l7 1 246 1h38l1-15v-90l-110-1z" fill="#051C38"/>
<path transform="translate(175,480)" d="m0 0h189l8 4 2 6 1 37v166l-1 37-2 8-6 6-9 2-209 1-26-1-9-2-5-4-3-8-2-13v-215l2-15 4-6 10-2zm-15 54-1 1-1 48v109l3 1 156-1 2-2v-156z" fill="#051C38"/>
<path transform="translate(0,1599)" d="m0 0 2 1z" fill="#818D9B"/>
</svg>
