<?xml version="1.0" encoding="UTF-8"?>
<svg version="1.1" viewBox="0 0 1600 1600" width="1280" height="1280" xmlns="http://www.w3.org/2000/svg">
<path transform="translate(361,927)" d="m0 0h49l37 3 22 3 42 10 28 8 31 11 28 12 38 18 25 12 36 16 24 11 33 16 30 14 33 15 33 16 30 14 36 16 37 17 28 14 11 7 11 9 11 13 7 14 2 10v13l-3 12-5 10-7 11-6 8-11 8-12 7-9 1-24-6-27-10-24-9-73-25-28-10-49-18-96-32-25-7h-7l-7 8-1 2v9l3 7 6 5 13 6 46 17 90 31 46 17 26 9 28 10 33 11 19 7 35 11 9 2h11l12-3 23-11 11-7 4-4h2l2-4 8-8 4-9 7-18 4-17 5-11 6-4 18-6 60-21 44-14 49-15 40-13 36-12 48-15 39-12 33-10 54-18 13-1 10 4 15 8 12 11 7 8 7 11 3 9 2 17-1 25-3 10-6 11-8 11-9 9-18 11-26 14-18 10-12 6-18 10-23 13-22 12-23 13-27 15-23 13-28 15-16 9-16 8-20 12-21 12-30 16-23 13-22 12-21 12-22 12-23 13-22 12-23 13-26 14-25 12-27 10-24 6-22 2h-24l-20-2-20-5-29-11-33-15-18-8-30-14-29-14-31-14-26-12-25-12-29-14-33-15-19-9-18-8-33-16-33-15-24-11-20-9-32-14-24-8-37-8-11-2-11-1h-13l-27 4-41 9-24 7-21 8h-5l-2-5-1-136v-156l1-75 2-4 43-4 70-10 44-4z" fill="#E17B1D"/>
<path transform="translate(939,487)" d="m0 0h33l24 4 15 4 15 6 19 10 25 17 15 13 8 8 11 14 12 17 9 15 9 17 10 24 5 17 8 40 2 18v14l-3 21-7 37-4 14-18 45-6 8-8-4-9-10-10-13-12-11-16-12-22-14-14-8-3-3v-2h-2l1-4 7-8 6-6 6-11 6-9 5-13 5-20 1-12v-18l-2-20-6-26-8-17-10-16-13-13-14-10-21-10-18-4-20-1-18 2-13 4-13 7-14 10-10 9-9 12-9 14-9 21-5 17-2 10-1 10v13l2 16 6 21 8 18 7 10 9 12 7 9 2 2v3l-12 6-28 17-12 8-10 8-8 8-11 14-8 9-3 2h-5l-6-9-8-21-7-16-6-19-5-21-4-24-1-24 2-25 5-26 8-27 12-28 11-19 11-17 9-12 12-14 9-9 8-7 12-9 17-10 15-8 21-8 20-5z" fill="#E17B1D"/>
<path transform="translate(956,74)" d="m0 0 5 2 6 8 9 24 10 21 7 15 6 11 9 12 6 5 17 7 31 9 23 5 19 3 6 3-1 6-12 16-8 8-8 11-8 10-11 15-9 14-8 14-2 6 1 18 3 14 5 46 2 22v13l-4 1-11-6-12-7-21-12-16-8-17-8-10-5-10-1-13 5-16 8-17 8-22 12-18 10-9 2v-9l4-24 2-22 1-30 1-14v-19l-4-13-6-9-12-14-13-16-7-9-18-20-6-10 2-4 4-2 32-5 27-7 24-8 11-6 6-7 12-18 6-11 9-20 7-12 8-20 4-6z" fill="#E17B1D"/>
<path transform="translate(50,892)" d="m0 0h24l40 2 12 2 2 2 1 8v485l-5 3-16 3-32 2h-23l-3-3-1-3-1-13-1-94v-292l1-99z" fill="#E17B1D"/>
<path transform="translate(943,800)" d="m0 0h21l17 2 21 5 17 7 17 9 17 12 14 11 6 5 5 5 10 9 8 11-1 6-8 9-8 7-15 12-15 10-34 16-17 5-23 4-8 1h-25l-22-3-18-5-15-6-21-10-17-11-12-9-11-9-10-9-1-6 4-8 12-13 10-10 17-13 25-15 14-7 18-7 16-4z" fill="#E17B1D"/>
<path transform="translate(1253,270)" d="m0 0 7 4 7 12 8 18 7 13 9 10 8 7 21 10 18 6 17 4 8 5-1 5-7 8-6 7-7 6-11 14-6 10-6 11-2 11 2 15 4 21 3 22v9l-5 2-15-5-14-7-15-8-11-4-18-1-18 6-19 11-18 8h-4l-4-10 2-18 4-27 1-3v-15l-4-12-7-14-8-11-12-14-9-10v-9l4-4 25-6 18-6 16-8 8-7 8-11 8-20 9-21z" fill="#E17B1D"/>
<path transform="translate(655,270)" d="m0 0 7 2 5 6 7 21 8 14 8 12 2 4 4 2 17 9 20 8 25 8 6 3 2 3-6 7-5 4h-2l-2 4-10 10-14 22-7 13-1 4v23l5 26 5 16 3 5v3l-14-2-16-6-23-12-16-4h-11l-14 3-14 7-10 6-14 6-8 1-2-2 1-24 2-25v-25l-3-12-5-9-9-11-14-15-7-7-4-8 6-5 15-5 31-9 16-7 7-6 12-23 5-21 5-9 4-4z" fill="#E17B1D"/>
<path transform="translate(943,592)" d="m0 0h23l11 2 16 8 9 7 8 8 9 13 6 12 5 14 2 11v19l-4 17-8 21-7 11-11 12-15 9-15 6-12 2h-13l-15-4-10-5-12-9-8-8-10-14-9-19-3-13-1-9v-11l3-19 5-12 7-12 8-11 15-15 14-8z" fill="#E17B1D"/>
<path transform="translate(988,1160)" d="m0 0 7 2 7 6h-3l-10-6z" fill="#FBF4ED"/>
</svg>
