<?xml version="1.0" encoding="UTF-8"?>
<svg version="1.1" viewBox="0 0 1600 1600" width="1280" height="1280" xmlns="http://www.w3.org/2000/svg">
<path transform="translate(1475)" d="m0 0h5l2 4v7l-5 21-6 15-8 26-16 54-17 54-17 50-11 29-19 49-11 27-15 36-9 21-17 38-16 35-13 29-22 46-13 26-10 19-20 39-9 16-13 24-13 23-14 25-13 22-13 21-8 12-9 11-17 8-16 8-29 15-14 9-25 14-8 8-1 2 13-2 19-5 27-11 14-8 11-4h3l-1 7-4 9-6 8-7 9-12 17-11 15-14 19-10 13-7 9-11 13-9 11-10 11-7 8-14 15-18 18-8 7-10 9-8 7-15 12-12 7-16 7-7 6-4 7 19 2h15l3 2-1 6-3 5-8 7-14 6-21 8-15 4-10 1-7-2-12-1-10 8-13 20-8 11-10 16-10 14-24 36-8 11-8 12-7 10-7 11-20 28-11 16-16 22-28 38-9 11-12 14-16 11-6 1-1-1v-7l5-15 14-26 12-19 9-14 11-16 19-28 9-13 13-19 8-12 12-17 7-11 11-17 14-20 15-23 7-11 10-15 12-19 10-14 13-17 12-17 7-12 12-18 11-17 10-16 14-21 16-25 13-20 12-19 10-16 10-15 9-15 9-14 11-17 11-18 6-9 24-40 9-14 11-18 8-13 6-10 12-19 21-35 10-17 9-15 14-24 8-14 12-20 11-19 10-17 7-12 10-18 9-15 12-22 9-16 13-22 10-18 6-11 14-25 11-20 12-21 24-44 10-19 8-15 7-14 9-16 7-14 10-19 22-44 9-19 6-14-1-1-8 10-10 16-7 10-10 18-12 18-13 21-18 30-9 17-7 10-6 11-9 16-12 20-9 16-9 15-10 17-7 12-10 17-6 11-10 17-21 36-8 13-8 15-10 16-12 21-12 20-7 11-6 11-15 25-17 28-8 13-9 16-11 17-13 22-8 12-10 16-11 18-14 22-8 13-10 15-15 23-13 20-10 15-10 16-11 17-12 18-7 11-64 96-17 26-13 21-13 17-4 2-4-5-6-17-8-16-7-11-13-20-13-24-8-19-11-33-3-16 2-11 5-14 14-29 15-27 15-28 10-18 11-21 9-16 11-19 10-17 8-14 14-24 14-25 9-15 10-17 18-30 15-24 17-28 8-13 17-28 10-15 6-10 8-12 15-23 11-18 8-13 12-19 5-5h3l5 16 9 44 11 59 5 29 8 44 3 10 4 2 2-5 2-4 3-32v-93l4-131 1-16 6-12 14-15 7-8 27-27h2l1-3 14-11 14-10 18-12 22-14 28-17 16-10 26-16 25-15 28-17 28-16 61-36 20-12 10-7z" fill="#E77B16"/>
<path transform="translate(885,327)" d="m0 0 11 1 10 4 9 7 12 12 6 9 2 6v7l-4 7-7 9-10 18-6 9-4 3-7-5-6-13-6-15h-17l-63 7-82 8-95 10-70 7-82 9-99 10-44 4-29 2h-15l8 14 7 15 11 29 13 37 17 56 15 56 16 66 13 57 10 50 13 72 9 48 8 53 6 35 10 75 5 35 5 49 10 115 2 45 1 44v71l-2 54-2 5 44-13 29-8 56-15 79-21 144-38 42-11 81-21 48-12 23-6 13-5 4-5 8-28 5-25 3-27 3-46 1-21 1-51-1-56-2-59-1-13-1-7 6-10 12-13 9-11 11-13 13-13 4-1 3 7 1 43 3 71 1 52v45l-1 34-3 49-4 41-5 28-9 36-7 18-8 15-7 6-16 6-41 11-82 21-99 26-82 21-114 30-82 21-41 11-79 21-23 6-16 6h-31l-7-7-7-8-10-11-12-17-8-14-8-15-12-30-8-24-7-30-5-33-2-17-1-15v-14l5-41 4-24 6-17 5-9 7-7 12-5 29-8h10l5 5v28l-3 16-7 8-6 7-5 13-3 13-2 24v17l3 31 5 27 6 22 11 30 10 22 10 19 4 5 2 1h8l13-5 6-3 2-8 2-19 2-40v-80l-3-71-3-50-4-44-10-97-9-64-8-56-18-107-13-69-15-71-11-48-11-44-18-66-15-49-14-41-13-33-9-22-3-5-7-2-14 1-11 4-5 4-5 8-4 20-2 28v22l2 26 4 24 6 23 12 36 11 23 8 12 5 4 17 10 8 10 9 19 4 14v7l-5 3-12 2h-20l-13-3-11-6-10-7-14-14-10-15-12-23-8-19-10-27-7-26-7-34-3-24-1-29 1-25 4-27 5-21 7-19 6-10 9-10 9-6 12-4 28-4 56-6 65-6 96-10 72-7 68-7 76-7 74-8 88-8 75-8z" fill="#E77B16"/>
<path transform="translate(822,515)" d="m0 0h18l3 3-9 19-6 10-5 8-10 4-25 4-58 7-84 9-169 19-8 1h-10l-4-4-4-11-2-8-1-11 3-5 17-3 79-10 48-6 65-7 112-12 38-5z" fill="#E77B16"/>
<path transform="translate(758,644)" d="m0 0h11l-1 5-7 13-10 15-6 10-4 5-190 23-50 6-5 1h-11l-5-5-1-2-2-16v-14l3-2 27-5 76-10 157-20z" fill="#E77B16"/>
<path transform="translate(693,777)" d="m0 0 3 1-13 27-10 20-4 2-42 4-88 12-18 2h-7l-4-2-3-7-3-14v-9l4-5 8-4 20-4 63-8 88-13z" fill="#E77B16"/>
<path transform="translate(937,1233)" d="m0 0h16l4 4 1 2 1 10v16l-5 4-18 6-38 8-60 12-31 7-20 4-2-1 2-6 6-9 8-11 7-9 9-10 10-5 38-9 31-6z" fill="#E77B16"/>
<path transform="translate(673,1032)" d="m0 0h7l5 6 6 12 8 11 2 5v4l-13 4-104 17-20 4h-13l-5-8-2-5-1-7v-14l4-4 15-4 31-6 48-9z" fill="#E77B16"/>
<path transform="translate(636,911)" d="m0 0h6l3 4v36l-6 3-50 9-37 7-11 1-5-7-5-16v-16l10-3 26-5 41-7z" fill="#E77B16"/>
<path transform="translate(670,1157)" d="m0 0h5l-1 5-6 10-12 16-9 14-8 7-10 2-31 4-22 4-11 1-5-3-3-5-1-4v-18l2-5 4-3 19-6 59-10 16-5 10-3z" fill="#E77B16"/>
<path transform="translate(718,944)" d="m0 0 6 3 11 11 13 17 12 14 20 20 11 9 9 6 6 9-2 9-6 11-7 8-4-1-8-7-7-8-11-16-10-15-24-40-5-11-4-12z" fill="#E77B16"/>
</svg>
