<?xml version="1.0" encoding="UTF-8"?>
<!DOCTYPE svg PUBLIC "-//W3C//DTD SVG 1.1//EN" "http://www.w3.org/Graphics/SVG/1.1/DTD/svg11.dtd">
<svg xmlns="http://www.w3.org/2000/svg" version="1.1" width="100px" height="100px" style="shape-rendering:geometricPrecision; text-rendering:geometricPrecision; image-rendering:optimizeQuality; fill-rule:evenodd; clip-rule:evenodd" xmlns:xlink="http://www.w3.org/1999/xlink">
<g><path style="opacity:0.873" fill="#e57916" d="M 65.5,11.5 C 74.7321,12.4061 82.8988,15.7394 90,21.5C 94.6688,41.8602 87.6688,56.5269 69,65.5C 49.5838,55.6654 43.0838,40.3321 49.5,19.5C 55.1731,17.3301 60.5065,14.6635 65.5,11.5 Z M 75.5,29.5 C 76.675,29.281 77.675,29.6143 78.5,30.5C 75.0226,35.1451 71.3559,39.6451 67.5,44C 66.8333,44.6667 66.1667,44.6667 65.5,44C 63.5,41.3333 61.5,38.6667 59.5,36C 60.0253,35.3076 60.6919,34.8076 61.5,34.5C 62.941,35.8651 64.2744,37.3651 65.5,39C 66.5,39.6667 67.5,39.6667 68.5,39C 71.0509,35.9556 73.3842,32.7889 75.5,29.5 Z"/></g>
<g><path style="opacity:0.826" fill="#e57916" d="M 10.5,26.5 C 21.8333,26.5 33.1667,26.5 44.5,26.5C 44.403,31.0302 44.7363,35.5302 45.5,40C 45.3248,41.6581 44.6582,42.9914 43.5,44C 31.1712,44.4999 18.8378,44.6665 6.5,44.5C 6.22877,39.0873 6.72877,33.7539 8,28.5C 8.9947,27.9341 9.82803,27.2674 10.5,26.5 Z"/></g>
<g><path style="opacity:0.909" fill="#e57916" d="M 6.5,52.5 C 20.8372,52.3334 35.1705,52.5001 49.5,53C 54.5522,59.7107 61.0522,64.544 69,67.5C 76.8739,64.5626 83.5406,59.896 89,53.5C 90.9655,63.4941 90.9655,73.4941 89,83.5C 62.2428,85.9823 35.4095,86.1489 8.5,84C 7.73622,81.9307 7.23622,79.764 7,77.5C 6.50027,69.1733 6.3336,60.84 6.5,52.5 Z M 18.5,66.5 C 19.964,65.8401 21.6307,65.5068 23.5,65.5C 25.7125,65.4123 27.7125,65.9123 29.5,67C 25.7446,67.7554 22.0779,67.5887 18.5,66.5 Z"/></g>
</svg>
