<?xml version="1.0" encoding="UTF-8"?>
<svg version="1.1" viewBox="0 0 1600 1600" width="100" height="100" xmlns="http://www.w3.org/2000/svg">
<path transform="translate(1008)" d="m0 0h24l8 16 14 27 13 23 13 25 12 22 10 20 10 19 13 25 12 22 9 15 8 7 14 4 75 13 126 23 40 8 7 3 1 4-8 9h-2v2l-8 7-9 11-9 10-7 7-7 8-25 25-7 8-10 10-14 16h-2l-2 4-9 9-7 8-46 46-8 7-5 6 1 10 6 48 7 61 13 91 5 41 4 18v4h-7l-10-4-19-10-25-12-16-8-16-7-16-8-33-16-17-8h-2v104l23-4 13-1h11l17 2 16 4 11 6 10 8 9 9 8 11 1 3 8-1 16-7 12-3 9-1h15l20 3 11 4 12 7 11 9 11 13 6 8 10-3 17-6 10-2 18-1 22 3 13 5 10 6 11 9 9 9 9 13 5 11 4 16v319l-2 21-7 26-13 40-17 48-16 46-5 20-2 14-1 31-1 111-7 2h-134l-2-1v-25l1-15 2-4h66l24-1 2-75 1-13h-342l1 3v23l-1 41-1 21h72l129 2 2 2-1 41-1 1-95 1h-148l-7-2-1-144-6-12-10-13-16-21-12-14-9-11-12-14-9-11-11-13-10-13-11-14-11-13-9-11-12-15-11-14-7-11-1-78v-171l2-16 6-7 13-10 17-14 14-12 15-13 14-12 12-11v-222l-6 2-50 24-38 19-24 11-28 13-9 4h-3l1-9 4-20 9-66 5-45 8-57 4-31 4-32v-10l-4-8-11-13-9-10-8-8-5-6-38-38-7-8-7-7-7-8-7-7-7-8-54-54-7-8-10-10-4-7 6-3 47-9 44-8 41-8 6-1h11l4 11 4 27v10l-5 3-49 7-12 1 4 5 8 7 8 8 8 7 48 48 7 8 14 15 11 12 19 19 9 11 6 8 2 8v12l-5 39-8 51-10 71-4 20v3l24-10 16-8 24-11 26-11 2-3 1-5 2-28 3-15 7-16 10-16 12-13 10-8 12-7 16-5 14-2h16l15 2 15 5 11 6 12 11 5 5 7 8 6 10 7 19 1 4v21l-1 13 2 8 17 9 28 13 29 14 19 10 1-1-10-76-12-94-3-19v-13l10-10 7-8 9-9 7-8 7-7 7-8 12-12 7-8 19-19 9-10 36-36 1-2h2l4-10-9-3-36-6-73-13-50-10-18-3-11-4-6-7-11-19-8-14-8-16-17-32-7-12-8-16-14-27-18-30-4-2-5 7-9 21-21 42-10 19-14 26-10 18-10 17-10 20-4 6-5 2-41 7-39 7-12 1-3-9-6-32v-9l5-2 27-3 31-5 8-3 4-5 13-27 10-18 7-14 9-16 10-18 8-16 12-23 6-10 7-14 10-19 10-18 7-11 5-8zm7 547-9 2-11 6-6 5-6 9-4 12-1 46v512l1 10-51 1-1-185-6 1-11 7-11 9-5 4v2h-2l-6 9v128l1 92 3 9 8 10 7 7 9 11 12 14 22 26 11 14 14 17 22 28 14 18 10 13 9 9 4 2h349l9-2 4-10 8-27 18-55 13-38 8-24 3-13 2-23 1-176v-109l-4-13-5-8-4-5-9-6-11-4-10-1-12 3-9 6-8 7-5 11-3 13-1 43v23l1 16-32-1-16-1-3-1-1-9v-110l-4-13-6-8-10-6-12-4h-11l-13 4-11 8-4 4-4 15-1 10-1 96h-11l-30-2-9-2-1-134-4-12-6-8-9-6-11-5-4-1h-13l-9 4-9 7-6 7-7 14-2 10-1 47v65l-27-1-14-1-5-2-1-117v-261l-2-12-6-12-7-9-9-6-10-3z" fill="#071D3A"/>
<path transform="translate(408,428)" d="m0 0 5 1 6 9 14 26 13 23 14 26 10 19 12 24 12 22 10 19 8 12 6 5 9 2 42 7 26 5 108 19 15 2 3 1-2 6-15 16-11 12-9 11-11 12-12 13-60 60-7 8-8 8-8 11v9l7 59 12 86 5 43 2 10v6l-5-2-23-12-22-11-23-11-25-12-29-14-58-28-9-2-10 4-28 13-17 9-18 8-17 9-23 11-27 12-26 12-19 10-6 2 1-13 6-45 6-48 6-38 6-54v-10l-3-8-11-14-10-10-7-8-47-47-7-8-15-16-7-8-15-16-14-14-4-6v-3l16-4 37-7 41-8 54-9 50-9 8-3 5-8 12-22 8-16 13-25 12-22 11-20 7-14 12-21 9-16 5-13zm1 109-7 8-8 20-14 28-12 22-12 23-9 15-5 6-13 3-43 7-45 8-41 6 4 5 19 19 7 8 12 12 7 8 15 15 7 6 7 8 8 8 10 13 3 8v15l-3 27-15 90-2 9 5-2 23-11 34-18 32-16 28-13 8-3 10 2 16 7 40 19 16 8 21 11 26 13h3l-3-21-5-36-6-55-4-20 1-11 9-11 12-13 22-22 7-8 16-16v-2h2l7-8 10-10 10-13 1-3-22-2-77-13-23-4-11-2-6-4-9-12-12-22-14-27-12-22-14-27-9-10z" fill="#071D3A"/>
<path transform="translate(502,1087)" d="m0 0 5 1 4 5 15 28 13 23 15 28 14 29 7 10 11 4 25 5 62 11 21 4 19 3 5 2-2 6-16 17-11 12-45 45-7 8-9 10-6 8-1 3 1 13 9 73 5 42 2 10v6l-6-1-17-8-17-9-20-9-28-13-34-17-10-4-7 1-39 20-18 8-25 11-24 12-18 8h-3l1-10 7-49 4-29 4-35 2-8-1-10-4-8-13-16-7-8-25-25v-2l-4-2v-2l-3-1-7-8-24-24-7-8-4-6v-2l2-1 29-3 34-7 26-5 32-5 15-4 5-3h2l2-4 9-16 15-29 10-18 12-21 10-19 4-12zm0 109-6 7-5 16-10 19-10 17-6 4-21 5-39 6-12 2 2 4 5 5 14 15 23 23 6 9 1 7v10l-4 26-7 31-1 4 12-3 19-9 20-11 13-5 11-1 14 4 24 11 24 14 5 1v-11l-5-37-4-20v-7l6-9 37-37 8-11v-3l-14-3-46-7-12-4-6-5-14-27-13-25-4-5z" fill="#071D3A"/>
<path transform="translate(948,339)" d="m0 0h35l15 1 3 5v43l-5 3h-45l-3-4-1-7v-36z" fill="#091F3C"/>
<path transform="translate(1043,339)" d="m0 0h33l12 1 2 2 1 45-2 4-11 1-31-1-6-2-2-8 1-34 1-7z" fill="#0B203D"/>
</svg>
