<?xml version="1.0" encoding="UTF-8"?><svg id="Layer_1" xmlns="http://www.w3.org/2000/svg" width="150" height="47.39" viewBox="0 0 150 47.39"><defs><style>.cls-1{fill:#221f1f;}.cls-2{fill:#f90;}</style></defs><path id="path8" class="cls-2" d="m92.91,36.34c-8.65,6.37-21.18,9.77-31.97,9.77-15.13,0-28.75-5.6-39.05-14.9-.81-.73-.08-1.73.89-1.16,11.12,6.47,24.87,10.36,39.07,10.36,9.58,0,20.12-1.98,29.8-6.09,1.46-.62,2.69.96,1.26,2.02"/><path id="path10" class="cls-2" d="m96.5,32.23c-1.1-1.41-7.31-.67-10.09-.34-.85.1-.98-.63-.21-1.17,4.94-3.48,13.05-2.47,14-1.31.95,1.17-.25,9.3-4.89,13.18-.71.6-1.39.28-1.08-.51,1.04-2.6,3.38-8.44,2.27-9.86"/><path id="path12" class="cls-1" d="m86.61,6.17v-3.38c0-.51.39-.85.85-.85h15.14c.49,0,.87.35.87.85v2.89c0,.49-.41,1.12-1.14,2.12l-7.84,11.2c2.91-.07,5.99.36,8.63,1.85.6.34.76.83.8,1.31v3.61c0,.49-.54,1.07-1.11.77-4.66-2.44-10.84-2.71-15.99.03-.52.28-1.08-.28-1.08-.78v-3.43c0-.55,0-1.49.56-2.33l9.09-13.03h-7.91c-.49,0-.87-.34-.87-.85"/><path id="path14" class="cls-1" d="m31.4,27.27h-4.6c-.44-.03-.79-.36-.82-.78V2.85c0-.47.4-.85.89-.85h4.29c.45.02.8.36.84.79v3.09h.08c1.12-2.99,3.23-4.38,6.06-4.38s4.68,1.39,5.98,4.38c1.11-2.99,3.65-4.38,6.36-4.38,1.93,0,4.04.8,5.33,2.58,1.46,1.99,1.16,4.88,1.16,7.41v14.92c0,.47-.4.85-.89.85h-4.6c-.46-.03-.83-.4-.83-.85v-12.53c0-1,.09-3.48-.13-4.43-.34-1.59-1.37-2.03-2.71-2.03-1.11,0-2.28.74-2.75,1.94-.47,1.19-.43,3.19-.43,4.53v12.53c0,.47-.4.85-.89.85h-4.6c-.47-.03-.83-.4-.83-.85v-12.53c0-2.64.43-6.52-2.84-6.52s-3.18,3.78-3.18,6.52v12.53c0,.47-.4.85-.89.85"/><path id="path16" class="cls-1" d="m116.5,1.5c6.83,0,10.53,5.87,10.53,13.33s-4.09,12.93-10.53,12.93-10.36-5.87-10.36-13.18,3.7-13.08,10.36-13.08m.04,4.82c-3.39,0-3.61,4.62-3.61,7.51s-.05,9.05,3.57,9.05,3.74-4.97,3.74-8c0-1.99-.08-4.38-.69-6.27-.52-1.65-1.55-2.29-3.01-2.29"/><path id="path18" class="cls-1" d="m135.89,27.27h-4.59c-.46-.03-.83-.4-.83-.85V2.77c.03-.43.41-.77.88-.77h4.27c.4.02.73.29.82.66v3.61h.08c1.29-3.23,3.1-4.77,6.28-4.77,2.07,0,4.08.74,5.38,2.78,1.2,1.89,1.2,5.07,1.2,7.36v14.88c-.05.41-.43.74-.89.74h-4.62c-.42-.03-.77-.34-.82-.74v-12.84c0-2.58.3-6.37-2.88-6.37-1.12,0-2.15.75-2.66,1.89-.65,1.44-.73,2.88-.73,4.48v12.73c0,.47-.41.85-.9.85"/><g id="use28"><path id="path30" class="cls-1" d="m74.54,15.98v-1c-3.33,0-6.85.71-6.85,4.64,0,1.99,1.03,3.34,2.8,3.34,1.3,0,2.45-.8,3.19-2.09.91-1.59.86-3.09.86-4.88m4.64,11.22c-.3.27-.74.29-1.09.11-1.53-1.27-1.8-1.86-2.64-3.07-2.53,2.58-4.31,3.35-7.59,3.35-3.87,0-6.89-2.39-6.89-7.18,0-3.74,2.03-6.28,4.91-7.53,2.5-1.1,5.99-1.3,8.66-1.6v-.6c0-1.09.08-2.39-.56-3.34-.56-.85-1.64-1.2-2.58-1.2-1.76,0-3.32.9-3.7,2.77-.08.41-.38.82-.8.84l-4.47-.48c-.38-.08-.79-.39-.69-.96,1.03-5.41,5.92-7.05,10.3-7.05,2.24,0,5.17.6,6.94,2.29,2.24,2.09,2.03,4.88,2.03,7.92v7.18c0,2.16.89,3.1,1.74,4.27.3.41.36.91-.01,1.22-.94.78-2.61,2.24-3.53,3.06h-.01"/></g><path id="path30-2" class="cls-1" d="m14.18,15.98v-1c-3.33,0-6.85.71-6.85,4.64,0,1.99,1.03,3.34,2.8,3.34,1.3,0,2.45-.8,3.19-2.09.91-1.59.86-3.09.86-4.88m4.64,11.22c-.3.27-.74.29-1.09.11-1.53-1.27-1.8-1.86-2.64-3.07-2.53,2.58-4.31,3.35-7.59,3.35-3.87,0-6.89-2.39-6.89-7.18,0-3.74,2.03-6.28,4.91-7.53,2.5-1.1,5.99-1.3,8.66-1.6v-.6c0-1.09.08-2.39-.56-3.34-.56-.85-1.64-1.2-2.58-1.2-1.76,0-3.32.9-3.7,2.77-.08.41-.38.82-.8.84l-4.47-.48c-.38-.08-.79-.39-.69-.96C2.41,2.91,7.3,1.28,11.68,1.28c2.24,0,5.17.6,6.94,2.29,2.24,2.09,2.03,4.88,2.03,7.92v7.18c0,2.16.89,3.1,1.74,4.27.3.41.36.91-.01,1.22-.94.78-2.61,2.24-3.53,3.06h-.01"/></svg>