<?xml version="1.0" encoding="UTF-8"?><svg id="a" xmlns="http://www.w3.org/2000/svg" width="100" height="100" viewBox="0 0 100 100"><defs><style>.b{fill:#e82947;}</style></defs><path class="b" d="m96.6,10.1c-.5-.3-1.1-.3-1.6,0-4.1,2.2-8.8,3.2-13.5,3-.4-5.8-5.2-10.3-11-10.3H13.7c-6.1,0-11,4.9-11,11v72.6c0,6.1,4.9,11,11,11h56.8c6.1,0,11-5,11-11.1,0-5.4-4-10-9.4-10.8v-35.9c3.3-2.8,7.5-4.2,11.9-5.6l1.1-.4c11-3.5,12.2-21.3,12.3-22,0-.6-.2-1.1-.7-1.4Zm-26.1-4.2c4,0,7.4,3.1,7.8,7.1-1.2,0-2.4-.1-3.6-.2-4.4-.5-8.9-.4-13.3.1,0,0,0,0-.1,0-5.6.9-10.7,3.6-14.6,7.6-.4.4-.8.8-1.1,1.2h-24.2c4.4-4.3,4.4-11.2.2-15.6,0,0-.1-.1-.2-.2h49.1ZM5.8,86.3V13.7c0-4.4,3.5-7.9,7.9-7.9s7.9,3.5,7.9,7.9-3.5,7.9-7.9,7.9-1.6.7-1.6,1.6.7,1.6,1.6,1.6h29.3c-8.1,11.1-5.3,21.1-3.6,25.1-2.9,5-5,10.4-6.3,16h-16.2c-.9,0-1.6.7-1.6,1.6s.7,1.6,1.6,1.6h17.5c.3,0,.7-.1.9-.3l7.2-5.3c.4-.3.6-.8.6-1.3,0-2.5.4-5,.8-7.4,2,1,4.3,1.4,6.5,1.4,1.2,0,2.4-.1,3.5-.4,4.6-1,8.8-3.6,11.6-7.4,0,0,0,0,0-.1.9-1.2,1.8-2.5,2.5-3.9.2-.4.5-.9.7-1.2v32.1H13.7c-.9,0-1.6.7-1.6,1.6s.7,1.6,1.6,1.6c4.4,0,7.9,3.5,7.9,7.9s-3.5,7.9-7.9,7.9-7.9-3.5-7.9-7.9Zm35.1-32.7c-.5,2.5-.8,5.1-.9,7.7l-3.1,2.3c1-3.4,2.4-6.8,4-10Zm37.4,32.7c0,4.4-3.5,7.9-7.9,7.9H21.4c4.4-4.3,4.4-11.2.2-15.6,0,0-.1-.1-.2-.2h49.1c4.4,0,7.9,3.5,7.9,7.9Zm5.7-55.8l-1.1.4c-3.2.9-6.3,2.1-9.3,3.7-1.3,0-2.6-.6-3.6-1.4-.6-.6-1.6-.6-2.2,0s-.6,1.6,0,2.2c.7.7,1.5,1.2,2.4,1.6-2,1.7-3.6,3.7-4.8,6-.5,1-1,1.9-1.7,2.7-2.9,0-5.7-.6-8.3-1.8-.8-.4-1.7,0-2.1.7-.4.8,0,1.7.7,2.1,2.2,1.1,4.6,1.7,7.1,2-2.2,2-4.8,3.4-7.7,4-3,.7-6.1.3-8.8-1.2.6-2.4,1.3-4.8,2.3-7.1,12.2-15,21-18.5,36.2-20.6.9-.1,1.5-.9,1.3-1.8-.1-.9-.9-1.5-1.8-1.3,0,0,0,0,0,0-15.7,2.2-25.5,6-38.3,21.9h0c-1,1.3-2,2.6-2.8,3.9-1.8-6.5-.6-13.4,3.4-18.8,0,.8.2,1.6.4,2.3.2.8,1.1,1.4,1.9,1.1.8-.2,1.4-1.1,1.1-1.9-.4-1.8-.5-3.7-.2-5.6.3-.3.6-.6.9-.9,2.7-2.8,6-4.9,9.7-6-.6,1.6-.9,3.3-.9,5,0,.9.7,1.6,1.6,1.6s1.6-.7,1.6-1.6c0-2,.5-4.1,1.6-5.8,2.6-.3,5.3-.4,7.9-.2-.6.7-1.1,1.4-1.5,2.2-.4.8,0,1.7.7,2.1.2.1.5.2.7.2.6,0,1.2-.3,1.4-.9.7-1.3,1.7-2.5,2.9-3.3,6.2.4,12.7.8,19-1.8-.8,4.8-3.1,14.3-9.7,16.4Z"/><path class="b" d="m16.9,61h12.6c.9,0,1.6-.7,1.6-1.6s-.7-1.6-1.6-1.6h-12.6c-.9,0-1.6.7-1.6,1.6s.7,1.6,1.6,1.6Zm0-7.9h15.8c.9,0,1.6-.7,1.6-1.6s-.7-1.6-1.6-1.6h-15.8c-.9,0-1.6.7-1.6,1.6s.7,1.6,1.6,1.6Zm0-7.9h15.8c.9,0,1.6-.7,1.6-1.6s-.7-1.6-1.6-1.6h-15.8c-.9,0-1.6.7-1.6,1.6s.7,1.6,1.6,1.6Zm0-7.9h15.8c.9,0,1.6-.7,1.6-1.6s-.7-1.6-1.6-1.6h-15.8c-.9,0-1.6.7-1.6,1.6s.7,1.6,1.6,1.6Z"/></svg>