<?xml version="1.0" encoding="UTF-8"?><svg id="Layer_1" xmlns="http://www.w3.org/2000/svg" width="150" height="23.72" viewBox="0 0 150 23.72"><defs><style>.cls-1{fill:#c6beb0;}.cls-2{fill:#366251;}</style></defs><path class="cls-2" d="m148.87,19.27v3.13h-8.18V1.7h7.6v3.13h-3.99v5.53h3.56v2.89h-3.61v6.02h4.62ZM130.34,1.66h3.85v17.61h4.33v3.13h-8.18V1.66Zm-2.65,14.82c0,4.33-1.92,5.92-5.29,5.92h-4.62V1.7h4.67c3.71,0,4.67,2.12,4.67,5.63,0,2.6-.96,3.95-2.55,4.04,1.78,0,3.18,1.78,3.18,5.1,0,0-.05,0-.05,0Zm-5.58-12.37h-.67v6.02h.96c.96,0,1.11-.96,1.11-2.69,0-2.41-.29-3.37-1.44-3.37l.05.05h0Zm.14,8.47h-.82v7.36h.96c1.11,0,1.44-.67,1.44-3.85,0-2.26-.34-3.46-1.59-3.46v-.05Zm-12.22,10.2c-3.22,0-4.91-1.35-4.91-10.68s1.44-10.59,4.96-10.59,4.96,1.54,4.96,10.59-1.44,10.68-4.96,10.68h-.05Zm.96-17.42c-.14-1.44-.48-1.78-.96-1.78-.58,0-.87.29-.96,1.78-.1,1.44-.1,3.51-.1,6.74,0,3.85,0,5.29.14,6.64.1,1.59.38,1.73.96,1.73.63,0,.82,0,.96-1.73V5.31s-.05.05-.05.05Zm-13.96,9.38c-.34-.96-.58-2.12-.87-3.56.19,2.79.19,3.56.19,6.02v5.29h-3.51V1.8h3.46s1.54,6.11,1.92,7.36c.34,1.3.63,2.31.72,3.27-.1-2.07-.1-4.52-.1-6.59V1.66h3.37v20.69h-2.94l-2.31-7.7.05.1Zm-26.61,2.21c0,3.37-1.44,5.77-4.72,5.77-2.79,0-4.67-1.44-4.67-5.05,0-.82,0-1.59.19-2.21h3.37c-.14.77-.24,1.25-.24,2.17,0,2.31.58,2.69,1.44,2.69.63,0,1.11-.34,1.11-2.65,0-2.02-1.44-3.51-2.89-5.29-1.54-1.73-3.13-4.04-3.13-5.97,0-3.08,1.44-4.81,4.43-4.81s4.48,1.54,4.48,4.57c0,.67-.19,1.2-.29,1.68h-3.08l.1-1.44c0-1.92-.29-2.65-1.11-2.65-.87,0-.96.82-.96,2.31,0,1.92,1.44,3.37,2.74,4.91,1.73,2.21,3.18,3.95,3.18,6.11,0,0,.05-.14.05-.14ZM50.7,1.7h7.7v3.13h-3.99v5.53h3.56v2.89h-3.51v6.02h4.57v3.13h-8.18V1.7s-.14,0-.14,0Zm-8.66,12.99c-.29-.96-.58-2.12-.82-3.56.19,2.79.19,3.56.19,6.02v5.29h-3.46V1.75h3.46l1.92,7.36c.38,1.3.67,2.31.87,3.27-.1-2.07-.19-4.52-.19-6.59V1.66h3.37v20.69h-3.03l-2.26-7.7s-.05.05-.05.05Zm-10.3-2.89c2.41.58,2.65,3.37,2.65,5.87,0,1.92.14,3.71.38,4.72h-3.85c0-.87-.24-1.2-.24-3.18v-2.6c0-1.68-.58-2.89-1.78-3.22h-.19v8.9h-3.85V1.61h5.63c2.55,0,4.33,1.44,4.33,5.29,0,3.18-1.44,4.57-3.08,4.81v.1Zm-2.41-7.51h-.67v5.92h1.11c.96,0,1.25-.63,1.25-2.41,0-3.13-.48-3.56-1.68-3.51Zm-10.97,14.73h-2.41l-.29,3.37h-3.22L15.47,1.56h3.66l3.51,20.79h-3.85l-.48-3.37s.05.05.05.05Zm-.67-6.26c-.1-.96-.48-3.99-.48-5.97-.14,2.07-.48,5-.48,5.92l-.48,3.99h1.92l-.48-3.95Zm-6.64,3.61c0,4.33-1.92,5.92-5.29,5.92H1.13V1.61h4.67c3.66,0,4.62,2.12,4.62,5.63,0,2.6-.96,3.95-2.55,4.04,1.78,0,3.18,1.78,3.18,5.1ZM5.46,4.11h-.72v6.02h.96c.96,0,1.11-.96,1.11-2.69,0-2.41-.24-3.37-1.44-3.37,0,0,.1.05.1.05Zm.1,8.42h-.77v7.36h.96c1.11,0,1.44-.67,1.44-3.85,0-2.26-.34-3.46-1.59-3.46,0,0-.05-.05-.05-.05Z"/><path class="cls-1" d="m91.03,13.88c-.1.67-.48,1.2-1.25,1.2-1.59,0-.34-2.41-1.83-2.41-.87,0-1.44.77-2.41,2.79l-1.44,3.46.29.63c.96,1.3,1.83,2.21,2.89,2.21.58,0,1.2-.29,2.17-1.25l.48.67c-1.06,1.3-2.41,2.02-3.61,2.02-1.44,0-2.69-1.3-3.61-2.31-1.35,1.44-2.89,2.31-5,2.31-3.03,0-5.77-1.92-5.1-6.26.58-2.6,2.55-4.33,4.81-5.77-.67-1.73-1.06-3.85-.77-5.44.53-3.32,3.51-5.25,6.06-5.25,2.98,0,4.33,2.02,3.85,4.33-.24,1.2-.77,2.31-2.02,3.37-1.3,1.15-3.46,2.17-4.67,2.89.77,1.92,1.92,4.09,3.56,6.88.48-.96,1.2-2.69,1.92-4.09.63-1.44,1.64-2.31,3.13-2.31,2.07,0,2.65,1.44,2.55,2.31Zm-16.12,3.61c-.29,1.78.82,4.19,3.71,4.19,1.44,0,2.41-.38,3.37-1.59-1.83-2.6-3.13-5.1-4.19-7.6-1.44,1.25-2.5,2.65-2.89,5Zm8.9-10.44c.63-.82.82-1.44.96-2.12.34-1.73-.67-2.89-2.17-2.89-1.92,0-3.37,1.59-3.46,3.08-.34,1.64-.14,3.22.38,4.91,1.15-.67,3.56-2.17,4.33-2.98,0,0-.05,0-.05,0Z"/></svg>