<?xml version="1.0" encoding="UTF-8"?><svg id="Layer_1" xmlns="http://www.w3.org/2000/svg" width="150" height="150" viewBox="0 0 150 150"><defs><style>.cls-1{fill:#ef4335;}.cls-2{fill:#17313b;}</style></defs><path class="cls-2" d="m111.63,104.9c-7.48,5.98-17.94,10.47-28.41,10.47-23.92,0-40.37-17.94-40.37-41.86s16.45-40.37,40.37-40.37c10.47,0,20.93,2.99,28.41,10.47l4.49,4.49,23.92-22.43-5.98-4.49C120.6,9.21,102.66,1.74,83.22,1.74,41.36,1.74,9.96,33.14,9.96,75s31.4,73.26,73.26,73.26c19.44,0,37.38-7.48,50.83-19.44l5.98-4.49-23.92-23.92-4.49,4.49Z"/><circle class="cls-1" cx="81.73" cy="75" r="23.92"/></svg>