<?xml version="1.0" encoding="UTF-8"?><svg id="a" xmlns="http://www.w3.org/2000/svg" width="100" height="100" viewBox="0 0 100 100"><defs><style>.b{fill:#e82947;}</style></defs><path class="b" d="m29.6,97.8c-.8,0-1.4-.6-1.4-1.4v-7.9c0-.8.6-1.4,1.4-1.4s1.4.6,1.4,1.4v7.9c0,.8-.6,1.4-1.4,1.4Z"/><path class="b" d="m80.1,97.8c-.8,0-1.4-.6-1.4-1.4v-7.9c0-.8.6-1.4,1.4-1.4s1.4.6,1.4,1.4v7.9c0,.8-.6,1.4-1.4,1.4Z"/><path class="b" d="m45.6,88.9c-.4,0-.7-.1-1-.4l-29.6-29.6c-.5-.5-.5-1.4,0-2,.5-.5,1.4-.5,2,0l29.6,29.6c.5.5.5,1.4,0,2-.3.3-.6.4-1,.4Z"/><path class="b" d="m88.2,97.8H21.6c-3.1,0-5.7-2.6-5.7-5.7v-6.6c0-5.4,1.6-10.6,4.5-15.1.4-.6,1.3-.8,1.9-.4.6.4.8,1.3.4,1.9-2.7,4-4.1,8.7-4.1,13.5v6.6c0,1.6,1.3,2.9,2.9,2.9h66.6c1.6,0,2.9-1.3,2.9-2.9v-6.6c0-9.6-5.6-18.3-14.4-22.3-.7-.3-1-1.1-.7-1.9.3-.7,1.1-1,1.9-.7,9.7,4.4,16,14.2,16,24.9v6.6c0,3.2-2.6,5.7-5.7,5.7Z"/><path class="b" d="m54.8,72c-7.6,0-14.7-4.5-17.9-11.4-.3-.7,0-1.5.7-1.9.7-.3,1.5,0,1.9.7,2.8,5.9,8.8,9.8,15.4,9.8s5.4-.6,7.8-1.9c.7-.4,1.5,0,1.9.6.4.7,0,1.5-.6,1.9-2.8,1.4-5.9,2.2-9.1,2.2Z"/><path class="b" d="m45.2,59.3c-.1,0-.2,0-.4,0-8.1-2.2-13.8-9.5-13.8-17.9,0,0,0,0,0,0v-15.2c0-13.1,10.7-23.8,23.8-23.8s23.8,10.7,23.8,23.8v20c0,.8-.6,1.4-1.4,1.4-.8,0-1.4-.6-1.4-1.4v-20c0-11.6-9.4-21-21-21s-21,9.4-21,21v15.1s0,0,0,0c0,7.2,4.8,13.5,11.8,15.3.7.2,1.2,1,1,1.7-.2.6-.7,1-1.4,1Z"/><path class="b" d="m64.9,76.8c-1.7,0-3-1.4-3-3v-25.7c0-.8.6-1.4,1.4-1.4s1.4.6,1.4,1.4v25.7c0,.1,0,.2.2.2,6.1,0,11-4.9,11-11v-10.3c0-.8.6-1.4,1.4-1.4.8,0,1.4.6,1.4,1.4v10.3c0,7.6-6.2,13.8-13.8,13.8Z"/><path class="b" d="m72,36.9h-1.9c-.8,0-1.4-.6-1.4-1.4s.6-1.4,1.4-1.4h1.9c1,0,2-.4,2.7-1.1.7-.7,1.1-1.7,1.1-2.7,0-2.1-1.7-3.9-3.9-3.9h-1.9c-.8,0-1.4-.6-1.4-1.4s.6-1.4,1.4-1.4h1.9c3.7,0,6.7,3,6.7,6.7,0,1.8-.7,3.5-2,4.7-1.3,1.3-2.9,2-4.7,2Z"/><path class="b" d="m54.9,52c-4.4,0-8.6-1.7-11.7-4.8-3.1-3.1-4.9-7.2-5-11.6,0,0,0,0,0,0v-8.2c0-3.5,2.9-6.4,6.4-6.4h6.7c1.9,0,3.8-.8,5.1-2.1h0c1.7-1.7,4-2.6,6.3-2.6,4.9,0,8.9,4,8.9,8.9v10.5s0,0,0,0c0,4.4-1.8,8.5-5,11.6-3.1,3.1-7.3,4.8-11.7,4.8Zm-13.9-16.5c.1,7.5,6.3,13.7,13.9,13.7s13.8-6.1,13.9-13.7v-10.5c0-3.3-2.7-6.1-6.1-6.1s-3.2.7-4.3,1.8h0c-1.9,1.9-4.5,3-7.1,3h-6.7c-2,0-3.6,1.6-3.6,3.6v8.2Zm16.4-15.7h0,0Z"/><path class="b" d="m29.5,64.9c-.5,0-.9-.2-1.2-.7-.4-.7-.2-1.5.4-1.9,2.9-1.8,6-3,9.3-3.6l4.6-.9c1.4-.3,2.4-1.5,2.4-2.9v-6.8c0-.8.6-1.4,1.4-1.4s1.4.6,1.4,1.4v6.8c0,2.8-2,5.2-4.7,5.7l-4.7.9c-3,.6-5.8,1.7-8.3,3.3-.2.1-.5.2-.7.2Z"/><path class="b" d="m53.6,97.8c-.3,0-.6,0-.9-.2l-8.5-3.3c-1.6-.6-3-1.5-4.2-2.8l-10.7-10.7c-.5-.5-.5-1.4,0-2,.5-.5,1.4-.5,2,0l10.7,10.7c.9.9,2,1.6,3.3,2.1l7.6,2.9-2.9-7.6c-.5-1.2-1.2-2.3-2.1-3.3l-31.8-31.8c-1.6-1.6-4.2-1.6-5.8,0-.8.8-1.2,1.8-1.2,2.9s.4,2.1,1.2,2.9l16.5,16.5c.5.5.5,1.4,0,2-.5.5-1.4.5-2,0l-16.5-16.5c-1.3-1.3-2-3-2-4.9s.7-3.6,2-4.9c2.7-2.7,7.1-2.7,9.8,0l31.8,31.8c1.2,1.2,2.1,2.6,2.8,4.2l3.3,8.5c.3.9.1,1.9-.5,2.6-.5.5-1.1.7-1.7.7Z"/><path class="b" d="m41.8,92.8c-.4,0-.7-.1-1-.4-.5-.5-.5-1.4,0-2l7.7-7.7c.5-.5,1.4-.5,2,0,.5.5.5,1.4,0,2l-7.7,7.7c-.3.3-.6.4-1,.4Z"/><path class="b" d="m12.1,63.2c-.4,0-.7-.1-1-.4-.5-.5-.5-1.4,0-2l7.8-7.8c.5-.5,1.4-.5,2,0,.5.5.5,1.4,0,2l-7.8,7.8c-.3.3-.6.4-1,.4Z"/></svg>