<?xml version="1.0" encoding="UTF-8"?><svg id="Layer_1" xmlns="http://www.w3.org/2000/svg" width="150" height="150" viewBox="0 0 150 150"><defs><style>.cls-1{fill:#eb4335;}.cls-2{fill:#4285f4;}.cls-3{fill:#fbbc05;}.cls-4{fill:#34a853;}</style></defs><path class="cls-2" d="m147.3,76.64c.09-5.07-.44-10.14-1.56-15.08h-69.27v27.38h40.66c-1.56,9.7-7,18.35-15.08,23.94l-.14.92,21.9,16.97,1.52.15c13.94-12.87,21.97-31.81,21.97-54.27"/><path class="cls-4" d="m76.47,148.78c19.92,0,36.64-6.56,48.86-17.87l-23.28-18.04c-6.23,4.35-14.59,7.38-25.58,7.38-19.13-.11-36.05-12.47-41.97-30.66l-.86.07-22.77,17.62-.3.83c12.51,24.93,38.02,40.67,65.91,40.66"/><path class="cls-3" d="m34.5,89.59c-1.61-4.7-2.45-9.63-2.47-14.59.03-4.96.83-9.88,2.38-14.59l-.04-.98-23.05-17.91-.75.36C.07,62.72.07,87.29,10.56,108.12l23.94-18.53"/><path class="cls-1" d="m76.47,29.75c10.57-.16,20.8,3.77,28.53,10.99l20.82-20.33C112.47,7.88,94.78,1,76.47,1.22c-27.89,0-53.4,15.73-65.91,40.66l23.86,18.53c5.98-18.19,22.91-30.53,42.06-30.66"/></svg>