<?xml version="1.0" encoding="UTF-8"?><svg id="Layer_1" xmlns="http://www.w3.org/2000/svg" width="150" height="50.52" viewBox="0 0 150 50.52"><defs><style>.cls-1{fill:#f90;}</style></defs><path class="cls-1" d="m21.23,49.21l-13.92-16.88h-.07v16.88H2.23V.63h5.01v27.58h.07l11.93-11.46h6.51l-14.26,13.24,16.12,19.21h-6.38Z"/><path class="cls-1" d="m33.43,9.96c-1.92,0-3.5-1.58-3.5-3.5s1.58-3.5,3.5-3.5,3.5,1.58,3.5,3.5-1.58,3.5-3.5,3.5Zm-2.47,39.25V16.75h5.01v32.45h-5.01Z"/><path class="cls-1" d="m64.11,49.21v-19.97c0-4.05-.69-8.58-5.62-8.58-3.98,0-7.61,2.81-10.08,4.94v23.6h-5.01V16.75h4.11l.69,3.91c3.57-2.74,7.06-4.73,11.59-4.73s9.33,3.36,9.33,11.46v21.82h-5.01Z"/><path class="cls-1" d="m91.19,49.89c-9.05,0-16.66-5.28-16.66-16.47,0-10.08,7.27-17.5,16.73-17.5,2.33,0,3.98.21,5.28.55V.63h5.01v46.93c-1.99,1.17-5.76,2.33-10.35,2.33Zm5.35-28.75c-1.3-.48-2.47-.82-5.01-.82-6.38,0-11.93,5.01-11.93,12.76,0,7.34,4.05,12.56,12.48,12.56,1.64,0,3.43-.34,4.46-.82v-23.67Z"/><path class="cls-1" d="m114.58,49.89c-3.98,0-5.69-2.54-5.69-5.97V.63h5.01v41.03c0,3.09.75,3.71,2.67,3.71.34,0,.89,0,1.71-.21l.62,3.64c-1.51.75-2.68,1.1-4.32,1.1Z"/><path class="cls-1" d="m126.99,33.84c0,6.17,3.57,11.73,10.56,11.73,2.95,0,5.97-1.17,7.89-2.4l1.58,3.57c-2.4,1.65-6.51,3.16-10.08,3.16-10.35,0-15.29-8.3-15.29-17.56s5.35-16.4,13.17-16.4c8.37,0,12.96,6.66,12.96,16.74v1.17h-20.78Zm7.89-13.65c-4.8,0-7.82,4.25-7.82,9.4h15.29c0-4.53-2.54-9.4-7.48-9.4Z"/></svg>