<?xml version="1.0" encoding="UTF-8"?><svg id="a" xmlns="http://www.w3.org/2000/svg" width="196" height="69" viewBox="0 0 196 69"><defs><style>.b{fill:#fff;}.c{fill:#f19102;}.d{fill:#131921;}</style></defs><path class="c" d="m89.4,43.9s-32.4,22-71.4,2.5l-3.5,4.1s38.3,29.2,74.9-6.6Z"/><path class="b" d="m17.1,44.4l-5.3,5.7s-1.9-2.3-6.9-4.3c0,0,1.1-5.9-4.3-11.8l5.9,6,.4-.3-6.2-5.9c.2.1,7,5.2,12.1,4.3,0,0,1.4,4,4.2,6.3Z"/><circle class="d" cx="7.8" cy="41.2" r="1.6"/><path class="b" d="m63.3,49.6L52.7,7.3,17.8,30.5l3.5,13.5s18.3,9.8,42,5.5Z"/><polygon class="c" points="66.5 13.5 56.8 17 64.8 49.6 66.5 48.9 66.5 13.5"/><polygon class="b" points="76.7 19.6 68 21.3 68 48.5 69.7 48 76.7 19.6"/><path class="b" d="m122.4,37.9h10.4c.3,0,.6.3.6.6v4c0,.3-.3.6-.6.6h-17.4c-.3,0-.6-.3-.6-.6v-24.1c0-.3.3-.6.6-.6h5.7c.3,0,.6.3.6.6v18.8c0,.3.3.6.6.6Zm-28.7-20.1h-4c-.3,0-.6.3-.6.6v24.1c0,.3.3.6.6.6h18c.3,0,.6-.3.6-.6v-3.8c0-.3-.3-.6-.6-.6h-11.3c-.3,0-.6-.3-.6-.6v-4c0-.3.3-.6.6-.6h10.5c.3,0,.6-.3.6-.6v-3.7c0-.3-.3-.6-.6-.6h-10.5c-.3,0-.6-.3-.6-.6v-3.9c0-.3.3-.6.6-.6h11.3c.3,0,.6-.3.6-.6v-3.8c0-.3-.3-.6-.6-.6h-14Zm55.5,5.5h6.7c.3,0,.6.3.6.6v18.6c0,.3.3.6.6.6h5.7c.3,0,.6-.3.6-.6v-18.6c0-.3.3-.6.6-.6h6.7c.3,0,.6-.3.6-.6v-4.2c0-.3-.3-.6-.6-.6h-21.6c-.3,0-.6.3-.6.6v4.2c0,.3.3.6.6.6Zm-11.2,19.9h5.9c.3,0,.6-.3.6-.6v-24.1c0-.3-.3-.6-.6-.6h-5.9c-.3,0-.6.3-.6.6v24.1c0,.3.3.6.6.6Zm56.6-20.9v-3.8c0-.3-.3-.6-.6-.6h-18c-.3,0-.6.3-.6.6v24.1c0,.3.3.6.6.6h18c.3,0,.6-.3.6-.6v-3.8c0-.3-.3-.6-.6-.6h-11.3c-.3,0-.6-.3-.6-.6v-4c0-.3.3-.6.6-.6h10.5c.3,0,.6-.3.6-.6v-3.7c0-.3-.3-.6-.6-.6h-10.5c-.3,0-.6-.3-.6-.6v-3.9c0-.3.3-.6.6-.6h11.3c.3,0,.6-.3.6-.6Z"/><path class="c" d="m93.7,53.9c-.3-.2-.6-.3-.9-.4,0,0,0,0,0,0,.4-.1.7-.3,1-.6.2-.3.3-.6.3-1s-.1-.8-.3-1.1c-.2-.3-.6-.5-1-.6-.4-.1-.9-.2-1.4-.2h-2.6v7.8h2.7c.6,0,1.2,0,1.6-.2.5-.2.8-.4,1.1-.7.3-.3.4-.8.4-1.3s0-.7-.2-1c-.2-.3-.4-.5-.7-.7Zm-2.4-2.9c.4,0,.7,0,1,.3.2.2.4.4.4.8s0,.4-.2.6c-.1.2-.3.3-.5.4-.2,0-.4.1-.7.1h-1v-2h1Zm1.6,5c-.1.2-.3.3-.6.4-.3,0-.5.1-.9.1h-1.2v-2.5h1.2c.2,0,.5,0,.7,0,.2,0,.4.1.5.2s.3.2.4.4c0,.2.1.3.1.6s0,.5-.2.7Zm12.1-5.1c-.4-.4-.9-.6-1.4-.8s-1.1-.3-1.8-.3-1.2.1-1.8.3c-.5.2-1,.5-1.4.8-.4.4-.7.8-.9,1.3-.2.5-.3,1-.3,1.6s.1,1.1.3,1.6c.2.5.5.9.9,1.3.4.4.9.6,1.4.9s1.1.3,1.8.3,1.3-.1,1.8-.3c.5-.2,1-.5,1.4-.9s.7-.8.9-1.3c.2-.5.3-1,.3-1.6s-.1-1.1-.3-1.6c-.2-.5-.5-.9-.9-1.3Zm-.7,4.3c-.2.4-.6.7-1,1-.4.2-.9.4-1.5.4s-1.1-.1-1.5-.4c-.4-.2-.8-.6-1-1-.3-.4-.4-.9-.4-1.4s.1-1,.4-1.4c.3-.4.6-.7,1-1,.4-.2.9-.4,1.5-.4s1.1.1,1.5.4c.4.2.8.6,1,1,.2.4.4.9.4,1.4s-.1,1-.4,1.4Zm12.2-4.3c-.4-.4-.9-.6-1.4-.8s-1.1-.3-1.8-.3-1.2.1-1.8.3c-.5.2-1,.5-1.4.8-.4.4-.7.8-.9,1.3-.2.5-.3,1-.3,1.6s.1,1.1.3,1.6c.2.5.5.9.9,1.3.4.4.9.6,1.4.9s1.1.3,1.8.3,1.3-.1,1.8-.3c.5-.2,1-.5,1.4-.9s.7-.8.9-1.3c.2-.5.3-1,.3-1.6s-.1-1.1-.3-1.6c-.2-.5-.5-.9-.9-1.3Zm-.7,4.3c-.2.4-.6.7-1,1-.4.2-.9.4-1.5.4s-1.1-.1-1.5-.4c-.4-.2-.8-.6-1-1-.3-.4-.4-.9-.4-1.4s.1-1,.4-1.4c.3-.4.6-.7,1-1,.4-.2.9-.4,1.5-.4s1.1.1,1.5.4c.4.2.8.6,1,1,.2.4.4.9.4,1.4s-.1,1-.4,1.4Zm7.9-1.7l3.8,4.1h-1.8l-3.3-3.6v3.6h-1.5v-7.8h1.5v3.2l3.2-3.2h1.8l-3.6,3.7Zm21.7-3.7h1.7l-3.5,8.2-2.6-5.5-2.6,5.5-3.5-8.2h1.7l2,5.2,2.4-5.6,2.5,5.6,2-5.2Zm8.7,4.5c.5-.2.8-.5,1.1-.8.3-.4.4-.8.4-1.3s-.1-.9-.4-1.3c-.3-.4-.6-.6-1.1-.8-.5-.2-1-.3-1.6-.3h-2.6v7.8h1.4v-3h.9l2.2,3h1.8l-2.4-3.1c.2,0,.3,0,.5-.2Zm-2.8-3.4h1.1c.3,0,.6,0,.9.2.2.1.4.3.6.4.1.2.2.4.2.7s0,.5-.2.7-.3.3-.6.4c-.2,0-.5.2-.9.2h-1.1v-2.6Zm7.6-1.1h1.5v7.8h-1.5v-7.8Zm4.2,0h6v1.2h-2.3v6.6h-1.4v-6.6h-2.3v-1.2Zm10.2,0h3.8v1.2h-3.8v1.9h3.6v1.1h-3.6v2.5h3.8v1.2h-5.2v-7.8h1.4Zm11.6,4.5c.5-.2.8-.5,1.1-.8.3-.4.4-.8.4-1.3s-.1-.9-.4-1.3c-.3-.4-.6-.6-1.1-.8-.5-.2-1-.3-1.6-.3h-2.6v7.8h1.4v-3h.9l2.2,3h1.8l-2.4-3.1c.2,0,.3,0,.5-.2Zm-2.8-3.4h1.1c.3,0,.6,0,.9.2s.4.3.6.4c.1.2.2.4.2.7s0,.5-.2.7c-.1.2-.3.3-.6.4-.2,0-.5.2-.9.2h-1.1v-2.6Zm13.2,4.5c0,.4,0,.7-.2,1-.2.3-.4.5-.6.7-.3.2-.6.3-.9.5s-.7.2-1.1.2-1,0-1.4-.3c-.4-.2-.8-.4-1.1-.7-.3-.3-.6-.6-.8-1l1.1-.7c.2.3.4.6.6.8.2.2.5.4.7.5.3.1.6.2.9.2s.7,0,1-.3c.2-.2.4-.4.4-.8s0-.5-.2-.7-.4-.3-.6-.4c-.3-.1-.6-.2-1-.4-.2,0-.4-.2-.7-.3-.3-.1-.5-.3-.7-.4s-.4-.4-.6-.6c-.2-.3-.2-.6-.2-.9s.1-.8.4-1.1.6-.6,1-.7c.4-.2.9-.3,1.4-.3s.9,0,1.3.3.7.4,1,.6.5.5.6.8l-1.2.6c-.1-.2-.3-.4-.4-.5-.2-.2-.4-.3-.6-.4-.2-.1-.5-.2-.8-.2s-.7,0-.9.3-.3.4-.3.6,0,.4.2.5c.1.2.3.3.6.5.3.1.7.3,1.1.4.3,0,.5.2.8.3.3.1.5.3.7.5.2.2.4.4.5.7s.2.6.2.9Z"/></svg>