<?xml version="1.0" encoding="UTF-8"?><svg id="a" xmlns="http://www.w3.org/2000/svg" width="100" height="100" viewBox="0 0 100 100"><defs><style>.b{fill:#e82947;fill-rule:evenodd;}</style></defs><path class="b" d="m24.7,3c-4.7.3-8.2,4.3-7.9,9,.3,4.3,3.7,7.7,7.9,7.9h57.5c.8,0,1.5-.6,1.6-1.4,0-.8-.6-1.5-1.4-1.6,0,0,0,0-.1,0H25.6c-3,0-5.4-2.4-5.4-5.3,0-3,2.3-5.5,5.3-5.5,0,0,.1,0,.2,0h56.6c.8,0,1.5-.6,1.6-1.4,0-.8-.6-1.5-1.4-1.6,0,0,0,0-.1,0,0,0-57.6,0-57.6,0Zm57.5,19.1H24.7c-5.9-.3-10.4-5.4-10.1-11.3.3-5.5,4.7-9.8,10.1-10.1h57.6c2.1,0,3.8,1.7,3.8,3.7,0,0,0,.2,0,.3-.2,2-1.8,3.5-3.8,3.5H25.6c-1.8,0-3.2,1.4-3.2,3.2,0,0,0,0,0,0,0,1.7,1.4,3.1,3.2,3.1h56.7c2.1,0,3.8,1.7,3.8,3.7,0,0,0,.2,0,.3-.2,2-1.8,3.5-3.8,3.5Z"/><path class="b" d="m82.9,99.3H23.2c-4.9-.4-8.7-4.5-8.7-9.4V11.4c0-.6.5-1.1,1.1-1.1s1.1.5,1.1,1.1h0v78.5c0,3.9,3.2,7.1,7.1,7.1h59c.5,0,.9-.4.9-.9V18.5c0-.6.5-1.1,1.1-1.1.6,0,1.1.5,1.1,1.1h0v77.5c0,1.8-1.4,3.2-3.2,3.2h0Z"/><path class="b" d="m80.1,16.9c-.3,0-.6-.1-.8-.3-1.4-1.3-2.3-3.2-2.3-5.1,0-1.8.8-3.6,2.3-5.1.4-.4,1.2-.4,1.6,0s.4,1.2,0,1.6h0c-1,.9-1.6,2.2-1.7,3.5,0,1.2.6,2.4,1.7,3.5.4.4.5,1.1,0,1.6-.2.2-.5.3-.8.3h0ZM27.7,99.3c-.6,0-1.1-.5-1.1-1.1h0V21c0-.6.5-1.1,1.1-1.1.6,0,1.1.5,1.1,1.1h0v77.2c0,.6-.5,1.1-1.1,1.1Zm24.7-46.3c.3,0,.6,0,.8.3l8,7.4h0s0,0,0,0v-22.9s0,0,0,0h0l-8,7.4c-.2.2-.5.3-.8.3h-4.8c-.3,0-.6.3-.6.6h0v6.4c0,.3.3.6.6.6h4.8,0Zm8.8,10c-.6,0-1.1-.2-1.6-.6l-7.7-7.1h-4.4c-1.6,0-2.9-1.3-2.9-2.9v-6.4c0-1.6,1.3-2.9,2.9-2.9h4.4l7.7-7.1c.7-.6,1.7-.8,2.5-.4.9.4,1.4,1.2,1.4,2.1v22.9c0,1.3-1,2.3-2.3,2.3h0Z"/><path class="b" d="m50.2,62.4c-1.8,0-3.3-1.5-3.3-3.3,0,0,0,0,0,0v-5c0-.6.5-1.1,1.1-1.1s1.1.5,1.1,1.1v5c0,.6.5,1,1,1s1-.5,1-1v-14.9c0-.6.5-1.1,1.1-1.1s1.1.5,1.1,1.1v14.9c0,1.8-1.5,3.3-3.3,3.3,0,0,0,0,0,0h0Zm12.1-7.7c-.6,0-1.1-.5-1.1-1.1s.5-1.1,1.1-1.1c1.8-.1,3.2-1.7,3-3.5-.1-1.6-1.4-2.9-3-3-.6,0-1.1-.5-1.1-1.1s.5-1.1,1.1-1.1c3.1.2,5.4,2.8,5.2,5.8-.2,2.8-2.4,5.1-5.2,5.2h0Z"/><path class="b" d="m37,30c-.7,0-1.3.6-1.3,1.3v35.8c0,.7.6,1.3,1.3,1.3h38.7c.7,0,1.3-.6,1.3-1.3V31.3c0-.7-.6-1.3-1.3-1.3h-38.7Zm38.7,40.6h-38.7c-2,0-3.5-1.6-3.5-3.5V31.3c0-2,1.6-3.5,3.5-3.6,0,0,0,0,0,0h38.7c2,0,3.5,1.6,3.5,3.5v35.8c0,1.9-1.6,3.5-3.5,3.5,0,0,0,0,0,0h0Zm-6.4,15.1h-25.9c-.6,0-1.1-.5-1.1-1.1,0-.6.5-1.1,1.1-1.1h25.9c.6,0,1.1.5,1.1,1.1s-.5,1.1-1.1,1.1h0Zm-5.1,5.7h-15.6c-.6,0-1.1-.5-1.1-1.1,0-.6.5-1.1,1.1-1.1h15.6c.6,0,1.1.5,1.1,1.1,0,.6-.5,1.1-1.1,1.1Z"/></svg>