<?xml version="1.0" encoding="UTF-8"?><svg id="Layer_1" xmlns="http://www.w3.org/2000/svg" width="150" height="150" xmlns:xlink="http://www.w3.org/1999/xlink" viewBox="0 0 150 150"><defs><style>.cls-1{fill:#5cd3cb;}.cls-2{fill:#feef7c;}.cls-3,.cls-4,.cls-5{fill:none;}.cls-4{clip-path:url(#clippath);}.cls-5{clip-path:url(#clippath-1);}</style><clipPath id="clippath"><path class="cls-3" d="m113.71,32.31c12.47,9.95,18.47,22.89,19.58,38.68-.95,30.16-15.16,49.58-39.63,57.94-28.26,8.53-46.26,1.58-63.63-16.1l-2.84,18c30.16,19.89,74.05,29.68,101.83,2.37,28.58-28.1,28.89-76.89-5.05-105.94-.16,0-10.26,5.05-10.26,5.05Z"/></clipPath><clipPath id="clippath-1"><path class="cls-3" d="m21.82,118.99l7.74-6.79c-17.68-25.1-18.47-61.89,5.84-82.1,18-15,53.68-22.74,82.1,2.37l4.42-7.74C98.55-1.16,63.34-4.48,40.76,4.52-14.49,26.15-5.97,99.25,21.82,118.99Z"/></clipPath></defs><path class="cls-3" d="m113.71,32.31c12.47,9.95,18.47,22.89,19.58,38.68-.95,30.16-15.16,49.58-39.63,57.94-28.26,8.53-46.26,1.58-63.63-16.1l-2.84,18c30.16,19.89,74.05,29.68,101.83,2.37,28.58-28.1,28.89-76.89-5.05-105.94-.16,0-10.26,5.05-10.26,5.05Z"/><g class="cls-4"><path class="cls-2" d="m109.29,17.94c-24.47-25.58-65.21-26.37-90.78-1.89-25.58,24.47-26.37,65.21-1.89,90.78l19.42,20.21c24.47,25.58,65.21,26.37,90.78,1.89,25.58-24.47,26.37-65.21,1.89-90.78-.16,0-19.42-20.21-19.42-20.21Z"/></g><path class="cls-3" d="m21.82,118.99l7.74-6.79c-17.68-25.1-18.47-61.89,5.84-82.1,18-15,53.68-22.74,82.1,2.37l4.42-7.74C98.55-1.16,63.34-4.48,40.76,4.52-14.49,26.15-5.97,99.25,21.82,118.99Z"/><g class="cls-5"><path class="cls-1" d="m112.76,21.41C88.29-4.16,47.55-4.95,21.98,19.52c-25.58,24.47-26.37,65.21-1.89,90.78l19.42,20.21c24.47,25.58,65.21,26.37,90.78,1.89,25.58-24.47,26.37-65.21,1.89-90.78l-19.42-20.21Z"/></g><path d="m9.98,74.46c0,35.52,28.73,64.42,64.42,64.42s64.42-28.73,64.42-64.42S110.08,10.05,74.39,10.05,9.98,38.94,9.98,74.46Zm44.84,11.53c.63-2.21,0-4.42-1.89-5.84-4.74-3.63-14.21-10.58-20.52-15.31-.95-.63-1.26-1.89-.95-3,.32-1.11,1.42-1.74,2.53-1.74h24.47c2.21,0,4.26-1.42,5.05-3.63,1.89-5.84,5.68-17.37,8.37-25.1.32-1.11,1.42-1.74,2.53-1.74s2.21.79,2.53,1.74c2.53,7.74,6.47,19.26,8.37,25.1.79,2.21,2.68,3.63,5.05,3.63h24.47c1.11,0,2.21.79,2.53,1.74.32,1.11,0,2.21-.95,3-6.32,4.74-15.63,11.84-20.37,15.47-1.74,1.42-2.53,3.63-1.89,5.84,1.89,5.84,5.53,17.37,8.05,25.26.32,1.11,0,2.37-.95,3s-2.21.63-3.16,0c-6.32-4.89-15.63-12-20.37-15.63-1.89-1.42-4.58-1.42-6.47,0-4.74,3.63-13.89,10.74-20.21,15.63-.95.63-2.21.79-3.16,0-.95-.63-1.42-1.89-.95-3,2.37-7.89,6.16-19.58,7.89-25.42Z"/></svg>