<?xml version="1.0" encoding="UTF-8" standalone="no"?>
<!-- Created with Inkscape (http://www.inkscape.org/) -->

<svg
   xmlns:dc="http://purl.org/dc/elements/1.1/"
   xmlns:cc="http://creativecommons.org/ns#"
   xmlns:rdf="http://www.w3.org/1999/02/22-rdf-syntax-ns#"
   xmlns:svg="http://www.w3.org/2000/svg"
   xmlns="http://www.w3.org/2000/svg"
   xmlns:sodipodi="http://sodipodi.sourceforge.net/DTD/sodipodi-0.dtd"
   xmlns:inkscape="http://www.inkscape.org/namespaces/inkscape"
   width="226.64006"
   height="51.93399"
   viewBox="0 0 59.965182 13.740867"
   version="1.1"
   id="svg5116"
   inkscape:version="0.92.0 r15299"
   sodipodi:docname="scribd.svg">
  <defs
     id="defs5110" />
  <sodipodi:namedview
     id="base"
     pagecolor="#ffffff"
     bordercolor="#666666"
     borderopacity="1.0"
     inkscape:pageopacity="0.0"
     inkscape:pageshadow="2"
     inkscape:zoom="3.9930545"
     inkscape:cx="112.32003"
     inkscape:cy="24.966996"
     inkscape:document-units="mm"
     inkscape:current-layer="layer1"
     showgrid="false"
     fit-margin-top="0"
     fit-margin-left="0"
     fit-margin-right="0"
     fit-margin-bottom="0"
     units="px"
     inkscape:window-width="1280"
     inkscape:window-height="744"
     inkscape:window-x="-4"
     inkscape:window-y="-4"
     inkscape:window-maximized="1" />
  <metadata
     id="metadata5113">
    <rdf:RDF>
      <cc:Work
         rdf:about="">
        <dc:format>image/svg+xml</dc:format>
        <dc:type
           rdf:resource="http://purl.org/dc/dcmitype/StillImage" />
        <dc:title></dc:title>
      </cc:Work>
    </rdf:RDF>
  </metadata>
  <g
     inkscape:label="Layer 1"
     inkscape:groupmode="layer"
     id="layer1"
     transform="translate(-94.258185,-207.46618)">
    <g
       id="g5158"
       transform="translate(0.26458383,-0.26457798)">
      <path
         id="path5016"
         d="m 143.40191,212.93337 c 0,-0.69056 -0.54241,-1.13506 -1.5293,-1.13506 h -2.10608 v 2.38125 h 2.04258 c 0.94192,-0.003 1.5928,-0.42862 1.5928,-1.24619 z"
         class="cls-1"
         inkscape:connector-curvature="0"
         style="fill:none;stroke-width:0.26458332" />
      <path
         id="path5018"
         d="m 131.38717,213.19002 c 0,-0.85725 -0.65088,-1.37054 -1.76742,-1.37054 h -2.12989 v 2.79135 h 2.11667 c 1.03982,0 1.78064,-0.52916 1.78064,-1.42081 z"
         class="cls-1"
         inkscape:connector-curvature="0"
         style="fill:none;stroke-width:0.26458332" />
      <path
         id="path5020"
         d="m 141.95198,214.87542 h -2.18545 v 2.43681 h 2.31775 c 1.05833,0 1.69597,-0.46302 1.69597,-1.24354 0,-0.78052 -0.6244,-1.19327 -1.82827,-1.19327 z"
         class="cls-1"
         inkscape:connector-curvature="0"
         style="fill:none;stroke-width:0.26458332" />
      <path
         id="path5022"
         d="m 150.02442,211.81683 h -1.61925 v 5.46629 h 1.61925 c 1.74625,0 2.86014,-1.18533 2.86014,-2.72256 0,-1.53723 -1.11389,-2.74373 -2.86014,-2.74373 z"
         class="cls-1"
         inkscape:connector-curvature="0"
         style="fill:none;stroke-width:0.26458332" />
      <path
         id="path5024"
         d="m 95.440885,214.50765 a 2.1960416,2.1960416 0 0 0 1.76741,0.79375 1.8917708,1.8917708 0 0 0 1.44198,-0.55563 1.8520833,1.8520833 0 0 0 0.52917,-1.32292 1.5875,1.5875 0 0 0 -0.51065,-1.24618 1.6166041,1.6166041 0 0 0 -1.08743,-0.45244 2.4500416,2.4500416 0 0 0 -0.47361,0.0609 1.9870208,1.9870208 0 0 1 -0.37835,0.0714 q -0.42069,0 -0.42069,-0.508 0,-0.8546 0.85196,-1.46844 a 4.0190208,4.0190208 0 0 1 0.51064,-0.31221 4.2545,4.2545 0 0 1 1.75948,-0.34925 6.0854167,6.0854167 0 0 1 3.439595,1.00013 l -0.75142,1.0795 1.04245,0.68792 1.41287,-2.01613 -0.45507,-0.35719 a 7.2945625,7.2945625 0 0 0 -4.696355,-1.6166 c -2.75167,0 -4.67519,1.68804 -4.67519,4.10633 v 0.0317 c 0,0.045 0,0.0926 0,0.14023 0.003,0.94986 0.24342,1.70127 0.69321,2.23309 z"
         class="cls-2"
         inkscape:connector-curvature="0"
         style="fill:#1e7b85;stroke-width:0.26458332" />
      <path
         id="path5026"
         d="m 102.55289,213.87529 a 1.8917708,1.8917708 0 0 0 -1.44199,0.55563 1.8520833,1.8520833 0 0 0 -0.52916,1.32291 1.5875,1.5875 0 0 0 0.51328,1.23825 1.6166041,1.6166041 0 0 0 1.10068,0.46302 2.4394583,2.4394583 0 0 0 0.47359,-0.0608 1.984375,1.984375 0 0 1 0.37836,-0.0714 q 0.4207,0 0.4207,0.508 a 1.5875,1.5875 0 0 1 -0.0397,0.35454 c -0.46568,1.143 -1.66424,1.79917 -3.39462,1.79917 a 6.7124792,6.7124792 0 0 1 -4.026945,-1.32292 l 0.94191,-1.10066 -0.99483,-0.76729 -1.69598,2.00818 0.43127,0.38629 a 7.9718958,7.9718958 0 0 0 5.331345,2.01878 c 0.22225,0 0.43658,0 0.6456,-0.0291 a 5.0270833,5.0270833 0 0 0 3.09033,-1.20385 q 1.2356,-1.1139 1.2356,-3.07711 0,-1.42346 -0.67205,-2.2225 a 2.1960416,2.1960416 0 0 0 -1.7674,-0.79904 z"
         class="cls-2"
         inkscape:connector-curvature="0"
         style="fill:#1e7b85;stroke-width:0.26458332" />
      <rect
         id="rect5028"
         height="6.9056249"
         width="0.78052086"
         y="211.09715"
         x="135.32155"
         class="cls-3"
         style="fill:#00293f;stroke-width:0.26458332" />
      <path
         id="path5030"
         d="m 143.09498,214.43356 a 1.6721666,1.6721666 0 0 0 1.09538,-1.60866 c 0,-1.05834 -0.889,-1.72773 -2.24895,-1.72773 h -2.94218 v 6.90562 h 3.06918 c 1.51076,0 2.50559,-0.70114 2.50559,-1.89442 0,-0.96837 -0.66146,-1.42875 -1.47902,-1.67481 z m -3.32845,-2.63525 h 2.11667 c 0.9869,0 1.52928,0.4445 1.52928,1.13506 0,0.82021 -0.65087,1.24355 -1.5875,1.24355 h -2.05845 v -2.38125 z m 2.31775,5.50598 h -2.31775 v -2.42887 h 2.18017 c 1.20384,0 1.83621,0.43391 1.83621,1.19327 0,0.75935 -0.64824,1.2356 -1.69335,1.2356 z"
         class="cls-3"
         inkscape:connector-curvature="0"
         style="fill:#00293f;stroke-width:0.26458332" />
      <path
         id="path5032"
         d="m 121.66373,217.40219 c -1.51871,0 -2.67494,-1.25413 -2.67494,-2.86015 0,-1.60602 1.14565,-2.84162 2.67494,-2.84162 a 3.0030208,3.0030208 0 0 1 2.16958,0.9472 l 0.52917,-0.5715 a 3.5956875,3.5956875 0 0 0 -2.69345,-1.09537 c -2.03201,0 -3.49251,1.60867 -3.49251,3.58246 0,1.97379 1.48167,3.55864 3.4687,3.55864 a 3.5956875,3.5956875 0 0 0 2.77548,-1.21179 l -0.52917,-0.50271 c -0.65881,0.62971 -1.28058,0.99484 -2.2278,0.99484 z"
         class="cls-3"
         inkscape:connector-curvature="0"
         style="fill:#00293f;stroke-width:0.26458332" />
      <path
         id="path5034"
         d="m 113.85852,214.17692 c -1.52135,-0.32544 -1.87325,-0.69057 -1.87325,-1.35202 0,-0.66146 0.56886,-1.12448 1.46844,-1.12448 a 3.0347708,3.0347708 0 0 1 1.99231,0.74877 l 0.45509,-0.60061 a 3.603625,3.603625 0 0 0 -2.42623,-0.84931 c -1.32292,0 -2.27013,0.79375 -2.27013,1.89442 0,1.10066 0.73025,1.65893 2.31775,2.00289 1.44992,0.30692 1.79652,0.67204 1.79652,1.32292 0,0.70115 -0.61118,1.18533 -1.53987,1.18533 a 3.2887708,3.2887708 0 0 1 -2.38125,-0.97631 l -0.47096,0.56356 a 4.0401875,4.0401875 0 0 0 2.8231,1.11125 c 1.37055,0 2.35744,-0.76993 2.35744,-1.96321 0,-1.06627 -0.71173,-1.62718 -2.24896,-1.9632 z"
         class="cls-3"
         inkscape:connector-curvature="0"
         style="fill:#00293f;stroke-width:0.26458332" />
      <path
         id="path5036"
         d="m 132.17564,213.16092 c 0,-1.24355 -0.97633,-2.06111 -2.49767,-2.06111 h -2.96863 v 6.90563 h 0.78052 v -2.68552 h 1.9738 l 2.00288,2.68287 h 0.95781 l -2.11668,-2.8231 c 1.0795,-0.19315 1.86797,-0.86519 1.86797,-2.01877 z m -4.68578,1.44991 v -2.794 h 2.13255 c 1.11388,0 1.7674,0.51329 1.7674,1.37054 0,0.85725 -0.74346,1.42346 -1.78064,1.42346 h -2.11667 z"
         class="cls-3"
         inkscape:connector-curvature="0"
         style="fill:#00293f;stroke-width:0.26458332" />
      <path
         id="path5038"
         d="m 150.02442,211.09717 h -2.39713 v 6.90562 h 2.39713 c 2.16958,0 3.66978,-1.51077 3.66978,-3.46339 0,-1.95263 -1.49225,-3.44223 -3.66978,-3.44223 z m 0,6.18595 h -1.61925 v -5.46629 h 1.61925 c 1.74625,0 2.86014,1.20386 2.86014,2.74373 0,1.53988 -1.11389,2.72256 -2.86014,2.72256 z"
         class="cls-3"
         inkscape:connector-curvature="0"
         style="fill:#00293f;stroke-width:0.26458332" />
    </g>
  </g>
</svg>
