<?xml version="1.0" encoding="utf-8"?>
<!-- Generator: Adobe Illustrator 27.6.1, SVG Export Plug-In . SVG Version: 6.00 Build 0)  -->
<svg version="1.1" id="Layer_1" xmlns="http://www.w3.org/2000/svg" xmlns:xlink="http://www.w3.org/1999/xlink" width="35" height="35" x="0px" y="0px"
	 viewBox="0 0 50 50" style="enable-background:new 0 0 50 50;" xml:space="preserve">
<style type="text/css">
	.st0{fill:#F1F0F0;}
	.st1{clip-path:url(#SVGID_00000021828460292467887630000011808736620112704671_);}
	.st2{fill:#D8202A;}
	.st3{fill:#2057A7;}
</style>
<g>
	<path class="st0" d="M25,48.9L25,48.9C11.8,48.9,1.1,38.2,1.1,25v0C1.1,11.8,11.8,1.1,25,1.1h0c13.2,0,23.9,10.7,23.9,23.9v0
		C48.9,38.2,38.2,48.9,25,48.9z"/>
	<g>
		<defs>
			<path id="SVGID_1_" d="M25,49L25,49C11.7,49,1,38.3,1,25v0C1,11.7,11.7,1,25,1h0c13.3,0,24,10.8,24,24v0C49,38.3,38.3,49,25,49z"
				/>
		</defs>
		<clipPath id="SVGID_00000066506006374396309160000015777939008183370662_">
			<use xlink:href="#SVGID_1_"  style="overflow:visible;"/>
		</clipPath>
		<g style="clip-path:url(#SVGID_00000066506006374396309160000015777939008183370662_);">
			<path class="st2" d="M25,18.7c7.6,0,15.2,0,22.9,0c0.3,0,0.3,0,0.4,0.3c0.3,1.3,0.5,2.5,0.7,3.8c0,0.3,0,0.7,0,1
				c0,0.1,0,0.2,0,0.2c0,0.3,0,0.6,0,0.9c-0.1,0-0.2,0-0.3,0c-7.8,0-15.6,0-23.4,0c-0.1,0-0.2,0-0.3,0v-0.1C25,22.8,25,20.8,25,18.7
				C25,18.8,25,18.8,25,18.7z"/>
			<path class="st2" d="M24,49c-0.2-0.1-0.5-0.1-0.7-0.1c-3.8-0.3-7.3-1.4-10.6-3.3c-0.9-0.5-1.7-1.1-2.5-1.7l-0.1-0.1
				c9.9,0,19.8,0,29.7,0c0,0.1-0.1,0.1-0.1,0.1c-2.8,2.2-5.9,3.7-9.3,4.5C29,48.7,27.5,48.9,26,49c-0.1,0-0.2,0-0.3,0
				C25.2,49,24.6,49,24,49z"/>
			<path class="st3" d="M25,18.7c0,0.1,0,0.1,0,0.2c0,2,0,4,0,6V25c-0.1,0-0.2,0-0.2,0C17,25,9.1,25,1.3,25C1,25,1,25,1,24.7
				c0-0.9,0.1-1.7,0.2-2.5c0-0.1,0.1-0.2,0.1-0.2c0.3-0.2,0.6-0.5,1-0.7c0.1-0.1,0.2-0.1,0.3,0c0.5,0.4,1.1,0.8,1.6,1.2
				c0.1,0.1,0.1,0.1,0.2,0.1c0.1-0.1,0-0.1,0-0.1c-0.2-0.7-0.4-1.3-0.7-2c-0.1-0.2-0.1-0.2,0.1-0.3c0.5-0.4,1.1-0.8,1.6-1.2
				c0.1,0,0.1-0.1,0.2-0.2c-0.1,0-0.1,0-0.2,0c-0.7,0-1.4,0-2.1,0c-0.2,0-0.2,0-0.2-0.2c-0.2-0.6-0.4-1.2-0.6-1.8c0-0.1,0-0.2,0-0.2
				C2.8,16,3,15.4,3.2,14.9c0,0,0-0.1,0.1-0.1C3.7,15,4,15.3,4.4,15.6c0-0.1,0-0.2,0-0.2c-0.2-0.5-0.3-1-0.5-1.4c0-0.1,0-0.2,0-0.3
				l0,0c0.4-0.8,0.4-0.8,1.2-1.3c0.2-0.1,0.4-0.3,0.6-0.4c-0.2,0-0.4,0-0.6,0c0.2-1,3.3-4.5,4.5-5.4C9.4,7.3,9.2,7.9,9,8.6
				c0.1,0,0.2-0.1,0.2-0.1c0.5-0.4,1.1-0.8,1.6-1.2c0.2-0.1,0.2-0.1,0.3,0c0.5,0.4,1.1,0.8,1.6,1.2c0.1,0,0.1,0.1,0.2,0.2
				c-0.1-0.2-0.1-0.4-0.2-0.5c-0.2-0.6-0.4-1.1-0.5-1.7c-0.1-0.2-0.1-0.2,0.1-0.3C12.9,5.8,13.4,5.4,14,5c0,0,0.1,0,0.1-0.1
				c-0.7,0-1.3,0-2.1,0c0.1-0.1,0.2-0.2,0.3-0.2c2.4-1.4,4.9-2.5,7.6-3C21.6,1.2,23.2,1,24.7,1h0.1C25,1,25,1,25,1.1s0,0.1,0,0.2
				c0,1.5,0,3.1,0,4.6c0,0.1,0,0.2,0,0.3c0,0.1,0,0.1,0,0.2c0,2,0,3.9,0,5.9c0,0.1,0,0.1,0,0.2c0,0.1,0,0.1,0,0.2c0,2,0,3.9,0,5.9
				V18.7z M19.6,16.3c0,0.1-0.1,0.2-0.1,0.2c-0.2,0.7-0.4,1.3-0.6,2c-0.1,0.2-0.1,0.2-0.3,0.2c-0.7,0-1.3,0-2,0c-0.1,0-0.1,0-0.3,0
				c0.1,0.1,0.2,0.1,0.2,0.2c0.5,0.4,1.1,0.8,1.6,1.2c0.2,0.1,0.2,0.1,0.1,0.3c-0.2,0.7-0.4,1.3-0.6,2c0,0.1-0.1,0.1,0,0.2l0.1-0.1
				c0.6-0.4,1.1-0.8,1.7-1.2c0.2-0.1,0.1-0.2,0.4,0c0.5,0.4,1.1,0.8,1.6,1.2c0.1,0,0.1,0.1,0.2,0.1c0-0.1,0-0.2-0.1-0.2
				c-0.2-0.6-0.4-1.2-0.6-1.9c-0.1-0.2-0.1-0.2,0.1-0.3c0.5-0.4,1.1-0.8,1.6-1.2c0.1,0,0.1-0.1,0.2-0.2c-0.1,0-0.2,0-0.3,0
				c-0.7,0-1.3,0-2,0c-0.2,0-0.2,0-0.3-0.2c-0.1-0.3-0.2-0.7-0.3-1C19.9,17.2,19.8,16.8,19.6,16.3z M9,22.6c0.1,0,0.1-0.1,0.2-0.1
				c0.5-0.4,1.1-0.8,1.6-1.2c0.2-0.1,0.2-0.1,0.3,0c0.5,0.4,1.1,0.8,1.6,1.2c0.1,0,0.1,0.1,0.2,0.1c0-0.1,0-0.1,0-0.2
				c-0.2-0.6-0.4-1.3-0.6-1.9c-0.1-0.2-0.1-0.2,0.1-0.4c0.5-0.4,1.1-0.8,1.6-1.2l0.1-0.1c-0.1,0-0.2,0-0.2,0c-0.7,0-1.3,0-2,0
				c-0.3,0-0.2,0-0.3-0.2c-0.2-0.7-0.4-1.3-0.6-2c0,0,0-0.1-0.1-0.1c-0.2,0.7-0.5,1.4-0.7,2.1c-0.1,0.2-0.1,0.2-0.3,0.2
				c-0.7,0-1.4,0-2.1,0c-0.1,0-0.1,0-0.2,0c0.1,0,0.1,0.1,0.2,0.1c0.5,0.4,1.1,0.8,1.6,1.2c0.2,0.1,0.2,0.1,0.1,0.3
				c-0.2,0.6-0.4,1.3-0.6,1.9C9.1,22.4,9,22.5,9,22.6z M13,15.6c0-0.1,0-0.2-0.1-0.2c-0.2-0.6-0.4-1.3-0.6-1.9
				c-0.1-0.2-0.1-0.2,0.1-0.3c0.6-0.4,1.1-0.8,1.7-1.2c0.1,0,0.1-0.1,0.2-0.2c-0.1,0-0.2,0-0.2,0c-0.7,0-1.3,0-2,0
				c-0.3,0-0.2,0-0.3-0.2c-0.2-0.6-0.4-1.2-0.6-1.9c0-0.1,0-0.2-0.1-0.2c0,0.1,0,0.1-0.1,0.2c-0.2,0.6-0.4,1.3-0.6,1.9
				c-0.1,0.2-0.1,0.2-0.3,0.2c-0.7,0-1.4,0-2.1,0c-0.1,0-0.1,0-0.2,0l0.1,0.1c0.6,0.4,1.1,0.8,1.7,1.2c0.2,0.1,0.2,0.1,0.1,0.3
				c-0.2,0.6-0.4,1.3-0.6,1.9c0,0.1-0.1,0.1,0,0.2c0.1-0.1,0.1-0.1,0.2-0.1c0.5-0.4,1.1-0.8,1.6-1.2c0.2-0.1,0.1-0.1,0.3,0
				c0.6,0.4,1.1,0.8,1.6,1.2C12.9,15.5,12.9,15.5,13,15.6z M22.9,11.8C22.8,11.8,22.8,11.7,22.9,11.8c-0.1,0-0.2,0-0.2,0
				c-0.7,0-1.3,0-2,0c-0.2,0-0.2,0-0.3-0.2c-0.2-0.7-0.4-1.3-0.6-2c0-0.1,0-0.1-0.1-0.2c0,0.1-0.1,0.1-0.1,0.2
				c-0.2,0.7-0.4,1.3-0.6,2c-0.1,0.2-0.1,0.2-0.3,0.2c-0.7,0-1.3,0-2,0c-0.1,0-0.1,0-0.2,0c0.1,0.1,0.1,0.1,0.2,0.2
				c0.5,0.4,1.1,0.8,1.6,1.2c0.2,0.1,0.2,0.1,0.1,0.3c-0.2,0.7-0.4,1.3-0.6,2c0,0.1-0.1,0.1,0,0.2c0.1,0,0.1-0.1,0.2-0.1
				c0.5-0.4,1.1-0.8,1.6-1.2c0.1-0.1,0.2-0.1,0.3,0c0.6,0.4,1.1,0.8,1.7,1.2l0.1,0.1c0-0.1,0-0.1,0-0.2c-0.2-0.6-0.4-1.3-0.6-1.9
				c-0.1-0.2-0.1-0.2,0.1-0.3c0.5-0.4,1.1-0.8,1.6-1.2C22.7,11.9,22.8,11.8,22.9,11.8z M17.7,8.6c0.1-0.1,0.2-0.1,0.3-0.2
				c0.5-0.4,1-0.7,1.6-1.1c0.1-0.1,0.2-0.1,0.3,0c0.6,0.4,1.1,0.8,1.7,1.2c0,0,0.1,0.1,0.2,0.1c0-0.1,0-0.1,0-0.2
				c-0.2-0.6-0.4-1.3-0.6-1.9c-0.1-0.2-0.1-0.2,0.1-0.3c0.5-0.4,1.1-0.8,1.6-1.2C23,5,23,4.9,23,4.8c-0.1,0-0.2,0-0.2,0
				c-0.7,0-1.3,0-2,0c-0.2,0-0.2,0-0.3-0.2c-0.2-0.7-0.4-1.3-0.6-2c0-0.1,0-0.1-0.1-0.2c0,0.1-0.1,0.1-0.1,0.2
				c-0.2,0.7-0.4,1.3-0.6,2C19,4.8,19,4.8,18.8,4.8c-0.7,0-1.4,0-2.1,0c-0.1,0-0.1,0-0.2,0c0,0.1,0.1,0.1,0.1,0.1
				c0.5,0.4,1.1,0.8,1.6,1.2c0.2,0.2,0.2,0.1,0.1,0.4c-0.2,0.6-0.4,1.2-0.6,1.8C17.7,8.4,17.6,8.4,17.7,8.6z"/>
			<path class="st2" d="M1.8,31.2c15.5,0,30.9,0,46.3,0c0,0.1,0,0.1,0,0.2c-0.6,2.1-1.4,4-2.5,5.9c-0.1,0.1-0.2,0.2-0.3,0.2
				c-13.5,0-27,0-40.5,0c-0.2,0-0.3-0.1-0.4-0.2c-1.1-1.8-1.9-3.8-2.5-5.8C1.9,31.4,1.9,31.3,1.8,31.2z"/>
			<path class="st2" d="M25,12.5c0-0.1,0-0.1,0-0.2c0-2,0-3.9,0-5.9c0-0.1,0-0.1,0-0.2c4.9,0,9.8,0,14.6,0c0.2,0,0.4,0,0.5,0.2
				c2,1.7,3.8,3.6,5.2,5.9l0.1,0.1l0,0l0,0l0,0c-0.1,0-0.1,0-0.2,0C38.5,12.5,31.8,12.5,25,12.5z"/>
			<path class="st0" d="M19.6,16.3c0.1,0.4,0.3,0.8,0.4,1.2c0.1,0.3,0.2,0.7,0.3,1c0.1,0.2,0.1,0.2,0.3,0.2c0.7,0,1.3,0,2,0
				c0.1,0,0.2,0,0.3,0c-0.1,0.1-0.1,0.1-0.2,0.2c-0.5,0.4-1.1,0.8-1.6,1.2c-0.2,0.1-0.2,0.1-0.1,0.3c0.2,0.6,0.4,1.2,0.6,1.9
				c0,0.1,0.1,0.2,0.1,0.2c-0.1,0-0.1-0.1-0.2-0.1c-0.5-0.4-1.1-0.8-1.6-1.2c-0.2-0.2-0.2-0.1-0.4,0c-0.6,0.4-1.1,0.8-1.7,1.2
				l-0.1,0.1c0-0.1,0-0.1,0-0.2c0.2-0.7,0.4-1.3,0.6-2c0.1-0.2,0.1-0.2-0.1-0.3c-0.5-0.4-1.1-0.8-1.6-1.2c-0.1,0-0.1-0.1-0.2-0.2
				c0.1,0,0.2,0,0.3,0c0.7,0,1.3,0,2,0c0.2,0,0.2,0,0.3-0.2c0.2-0.7,0.4-1.3,0.6-2C19.6,16.5,19.6,16.5,19.6,16.3z"/>
			<path class="st0" d="M9,22.6c0-0.1,0-0.2,0-0.2c0.2-0.6,0.4-1.3,0.6-1.9c0.1-0.2,0.1-0.2-0.1-0.3c-0.5-0.5-1-0.9-1.5-1.3
				c-0.1,0-0.1-0.1-0.2-0.1c0-0.1,0.1,0,0.2,0c0.7,0,1.4,0,2.1,0c0.2,0,0.2,0,0.3-0.2c0.2-0.7,0.5-1.4,0.7-2.1
				c0.1,0,0.1,0.1,0.1,0.1c0.2,0.7,0.4,1.3,0.6,2c0.1,0.3,0,0.2,0.3,0.2c0.7,0,1.3,0,2,0c0.1,0,0.2,0,0.2,0c0,0.1-0.1,0.1-0.1,0.1
				c-0.5,0.4-1.1,0.8-1.6,1.2c-0.2,0.2-0.2,0.2-0.1,0.4c0.2,0.6,0.4,1.3,0.6,1.9c0,0.1,0.1,0.1,0,0.2c-0.1,0-0.1-0.1-0.2-0.1
				c-0.5-0.4-1.1-0.8-1.6-1.2c-0.2-0.1-0.2-0.1-0.3,0c-0.5,0.4-1.1,0.8-1.6,1.2C9.2,22.5,9.1,22.5,9,22.6z"/>
			<path class="st0" d="M13,15.6c-0.1,0-0.2-0.1-0.2-0.1c-0.6-0.4-1.1-0.8-1.6-1.2c-0.2-0.1-0.1-0.1-0.3,0c-0.5,0.4-1.1,0.8-1.6,1.2
				c-0.1,0-0.1,0.1-0.2,0.1c0-0.1,0-0.2,0-0.2c0.2-0.6,0.4-1.3,0.6-1.9c0.1-0.2,0.1-0.2-0.1-0.3C9,12.8,8.5,12.4,7.9,12l-0.1-0.1
				c0.1-0.1,0.1,0,0.2,0c0.7,0,1.4,0,2.1,0c0.2,0,0.2,0,0.3-0.2c0.2-0.6,0.4-1.3,0.6-1.9c0-0.1,0-0.1,0.1-0.2
				c0.1,0.1,0.1,0.2,0.1,0.2c0.2,0.6,0.4,1.2,0.6,1.9c0.1,0.2,0,0.2,0.3,0.2c0.7,0,1.3,0,2,0c0.1,0,0.2,0,0.2,0
				c0,0.1-0.1,0.1-0.2,0.2c-0.6,0.4-1.1,0.8-1.7,1.2c-0.1,0.1-0.1,0.1-0.1,0.3c0.2,0.6,0.4,1.3,0.6,1.9C13,15.4,13,15.5,13,15.6z"/>
			<path class="st0" d="M22.9,11.8c-0.1,0-0.1,0.1-0.2,0.1c-0.5,0.4-1.1,0.8-1.6,1.2c-0.2,0.1-0.2,0.1-0.1,0.3
				c0.2,0.6,0.4,1.3,0.6,1.9c0,0.1,0,0.1,0,0.2c-0.1,0-0.1,0-0.1-0.1c-0.6-0.4-1.1-0.8-1.7-1.2c-0.1-0.1-0.2-0.1-0.3,0
				c-0.5,0.4-1.1,0.8-1.6,1.2c-0.1,0-0.1,0.1-0.2,0.1c0-0.1,0-0.1,0-0.2c0.2-0.7,0.4-1.3,0.6-2c0.1-0.2,0.1-0.2-0.1-0.3
				c-0.5-0.4-1.1-0.8-1.6-1.2c-0.1,0-0.1-0.1-0.2-0.2c0.1,0,0.1,0,0.2,0c0.7,0,1.3,0,2,0c0.2,0,0.2,0,0.3-0.2c0.2-0.7,0.4-1.3,0.6-2
				c0-0.1,0-0.1,0.1-0.2c0.1,0,0.1,0.1,0.1,0.2c0.2,0.7,0.4,1.3,0.6,2c0.1,0.2,0.1,0.2,0.3,0.2c0.7,0,1.3,0,2,0
				C22.7,11.7,22.8,11.7,22.9,11.8C22.8,11.7,22.8,11.8,22.9,11.8z"/>
			<path class="st0" d="M17.7,8.6c0-0.1,0-0.2,0-0.3c0.2-0.6,0.4-1.2,0.6-1.8c0.1-0.3,0.1-0.2-0.1-0.4c-0.5-0.4-1.1-0.8-1.6-1.2
				l-0.1-0.1c0.1,0,0.1,0,0.2,0c0.7,0,1.4,0,2.1,0c0.2,0,0.2,0,0.3-0.2c0.2-0.7,0.4-1.3,0.6-2c0-0.1,0-0.1,0.1-0.2
				c0.1,0.1,0.1,0.1,0.1,0.2c0.2,0.7,0.4,1.3,0.6,2c0.1,0.2,0.1,0.2,0.3,0.2c0.7,0,1.3,0,2,0c0.1,0,0.2,0,0.2,0
				c0,0.1-0.1,0.1-0.1,0.2c-0.5,0.4-1.1,0.8-1.6,1.2c-0.2,0.1-0.2,0.1-0.1,0.3c0.2,0.6,0.4,1.3,0.6,1.9c0,0.1,0.1,0.1,0,0.2
				c-0.1,0-0.1,0-0.2-0.1c-0.6-0.4-1.1-0.8-1.7-1.2c-0.1-0.1-0.2-0.1-0.3,0c-0.5,0.4-1,0.8-1.6,1.1C17.8,8.4,17.8,8.5,17.7,8.6z"/>
		</g>
	</g>
</g>
</svg>
