<?xml version="1.0" encoding="UTF-8"?><svg id="a" xmlns="http://www.w3.org/2000/svg" width="100" height="100" viewBox="0 0 100 100"><defs><style>.b{fill:#e82947;fill-rule:evenodd;}</style></defs><path class="b" d="m75.6,77.8c-.6,0-1.1-.2-1.6-.6l-3.9-4c-2.2-2.1,1.1-5.4,3.2-3.2l2.3,2.3,6.8-6.8c2.1-2.1,5.4,1.1,3.2,3.2l-8.4,8.4c-.5.4-1,.6-1.7.6Zm-6.7,20.9H17.6c-6.2,0-11.2-5.1-11.2-11.2V12.6C6.4,6.4,11.4,1.4,17.6,1.4h51.4c6.2,0,11.2,5,11.2,11.2v41.4c2.4,1.5,6.7,3.4,10.1,1.4,1.5-.9,3.4.2,3.4,2v14.3c0,4.4-3.3,14-13.6,17.4-.9,5.4-5.5,9.5-11.1,9.5Zm6.6-44.7V12.6c0-3.7-3-6.7-6.6-6.7H17.6c-3.6,0-6.6,3-6.6,6.7v74.8c0,3.6,3,6.7,6.6,6.7h51.4c3.1,0,5.7-2.2,6.4-5-10.1-3.6-13.3-12.9-13.3-17.3v-14.3c0-1.8,1.9-2.8,3.4-2,3.4,2,7.6.1,10-1.5Zm-15-31.4H25.9c-3,0-3-4.6,0-4.6h34.6c3,0,3,4.6,0,4.6Zm6.6,14.9H19.3c-3,0-3-4.6,0-4.6h47.9c3,0,3,4.6,0,4.6Zm0,14.8H19.3c-3,0-3-4.6,0-4.6h47.9c3,0,3,4.6,0,4.6Zm-21.9,14.9h-25.9c-3,0-3-4.6,0-4.6h25.9c3,0,3,4.6,0,4.6Zm3.1,14.8h-29c-3,0-3-4.6,0-4.6h29c3,0,3,4.6,0,4.6Zm18.3-10.3c0,.7.8,10.3,11.2,13.4,10.4-3.1,11.2-12.6,11.2-13.4v-11c-4.3.8-8.6-1.1-11.2-2.7-2.6,1.7-6.8,3.5-11.2,2.7v11Z"/></svg>