<?xml version="1.0" encoding="UTF-8"?>
<!DOCTYPE svg PUBLIC "-//W3C//DTD SVG 1.1//EN" "http://www.w3.org/Graphics/SVG/1.1/DTD/svg11.dtd">
<svg xmlns="http://www.w3.org/2000/svg" version="1.1" width="270px" height="62px" style="shape-rendering:geometricPrecision; text-rendering:geometricPrecision; image-rendering:optimizeQuality; fill-rule:evenodd; clip-rule:evenodd" xmlns:xlink="http://www.w3.org/1999/xlink">
<g><path style="opacity:0.956" fill="#000000" d="M 78.5,17.5 C 78.2627,18.791 78.596,19.791 79.5,20.5C 79.2627,21.791 79.596,22.791 80.5,23.5C 80.2627,24.791 80.596,25.791 81.5,26.5C 81.2322,28.099 81.5655,29.4324 82.5,30.5C 82.2627,31.791 82.596,32.791 83.5,33.5C 83.2627,34.791 83.596,35.791 84.5,36.5C 84.2627,37.791 84.596,38.791 85.5,39.5C 85.2627,40.791 85.596,41.791 86.5,42.5C 86.2627,43.791 86.596,44.791 87.5,45.5C 87.5,45.8333 87.5,46.1667 87.5,46.5C 67.9417,50.0839 48.6084,48.5839 29.5,42C 26.9005,37.2989 24.9005,32.2989 23.5,27C 23.6448,26.228 23.9781,25.5613 24.5,25C 40.6186,16.274 56.952,8.10735 73.5,0.5C 74.5945,6.439 76.2611,12.1057 78.5,17.5 Z"/></g>
<g><path style="opacity:0.959" fill="#f49401" d="M 87.5,46.5 C 87.5,46.1667 87.5,45.8333 87.5,45.5C 87.7373,44.209 87.404,43.209 86.5,42.5C 86.7373,41.209 86.404,40.209 85.5,39.5C 85.7373,38.209 85.404,37.209 84.5,36.5C 84.7373,35.209 84.404,34.209 83.5,33.5C 83.7373,32.209 83.404,31.209 82.5,30.5C 82.7678,28.901 82.4345,27.5676 81.5,26.5C 81.7373,25.209 81.404,24.209 80.5,23.5C 80.7373,22.209 80.404,21.209 79.5,20.5C 79.7373,19.209 79.404,18.209 78.5,17.5C 78.3259,15.139 77.9926,12.8056 77.5,10.5C 82.1727,9.49723 86.8394,8.49723 91.5,7.5C 91.6666,20.5043 91.4999,33.5043 91,46.5C 89.8545,47.6843 88.6879,47.6843 87.5,46.5 Z"/></g>
<g><path style="opacity:0.813" fill="#e47200" d="M 122.5,40.5 C 122.167,40.5 121.833,40.5 121.5,40.5C 121.5,30.8333 121.5,21.1667 121.5,11.5C 130.506,11.3336 139.506,11.5002 148.5,12C 149.423,14.0408 149.756,16.2075 149.5,18.5C 143.833,18.5 138.167,18.5 132.5,18.5C 132.5,19.8333 132.5,21.1667 132.5,22.5C 137.511,22.3341 142.511,22.5007 147.5,23C 148.423,25.0408 148.756,27.2075 148.5,29.5C 143.167,29.5 137.833,29.5 132.5,29.5C 132.5,30.8333 132.5,32.1667 132.5,33.5C 137.844,33.334 143.177,33.5006 148.5,34C 149.423,36.0408 149.756,38.2075 149.5,40.5C 140.5,40.5 131.5,40.5 122.5,40.5 Z"/></g>
<g><path style="opacity:0.818" fill="#e37200" d="M 157.5,11.5 C 160.833,11.5 164.167,11.5 167.5,11.5C 167.5,18.8333 167.5,26.1667 167.5,33.5C 173.093,33.1934 178.593,33.5268 184,34.5C 184.743,36.4406 184.576,38.2739 183.5,40C 174.833,40.6667 166.167,40.6667 157.5,40C 156.179,30.5001 156.179,21.0001 157.5,11.5 Z"/></g>
<g><path style="opacity:0.793" fill="#e37200" d="M 188.5,11.5 C 192.106,11.2108 195.606,11.5442 199,12.5C 199.5,21.8274 199.666,31.1607 199.5,40.5C 195.563,40.7935 191.73,40.4601 188,39.5C 187.22,30.1193 187.387,20.786 188.5,11.5 Z"/></g>
<g><path style="opacity:0.839" fill="#e37200" d="M 203.5,11.5 C 214.172,11.3335 224.839,11.5002 235.5,12C 236.423,14.0408 236.756,16.2075 236.5,18.5C 232.833,18.5 229.167,18.5 225.5,18.5C 225.5,25.8333 225.5,33.1667 225.5,40.5C 221.833,40.5 218.167,40.5 214.5,40.5C 214.5,33.1667 214.5,25.8333 214.5,18.5C 210.833,18.5 207.167,18.5 203.5,18.5C 203.5,16.1667 203.5,13.8333 203.5,11.5 Z"/></g>
<g><path style="opacity:0.811" fill="#e37200" d="M 240.5,11.5 C 249.506,11.3336 258.506,11.5002 267.5,12C 268.423,14.0408 268.756,16.2075 268.5,18.5C 262.833,18.5 257.167,18.5 251.5,18.5C 251.34,20.1992 251.506,21.8659 252,23.5C 256.748,22.3651 261.581,22.1985 266.5,23C 267.833,25 267.833,27 266.5,29C 261.511,29.4993 256.511,29.6659 251.5,29.5C 251.34,31.1992 251.506,32.8659 252,34.5C 257.082,33.363 262.249,33.1963 267.5,34C 268.423,36.0408 268.756,38.2075 268.5,40.5C 259.167,40.5 249.833,40.5 240.5,40.5C 240.5,30.8333 240.5,21.1667 240.5,11.5 Z"/></g>
<g><path style="opacity:0.81" fill="#000000" d="M 101.5,13.5 C 103.199,13.3398 104.866,13.5065 106.5,14C 103.031,24.7414 99.364,35.4081 95.5,46C 94.552,46.4828 93.552,46.6495 92.5,46.5C 92.5,36.1667 92.5,25.8333 92.5,15.5C 95.6888,15.1417 98.6888,14.475 101.5,13.5 Z"/></g>
<g><path style="opacity:0.801" fill="#000000" d="M -0.5,28.5 C 5.32693,31.8776 11.6603,33.8776 18.5,34.5C 20.22,37.2016 21.8866,39.8682 23.5,42.5C 22.8333,42.5 22.5,42.8333 22.5,43.5C 19.9241,44.5687 17.7574,46.2354 16,48.5C 13.2128,46.1889 10.0462,44.5223 6.5,43.5C 5.60425,40.8564 4.77091,38.1897 4,35.5C 3.12373,33.3645 1.62373,32.0312 -0.5,31.5C -0.5,30.5 -0.5,29.5 -0.5,28.5 Z M 9.5,36.5 C 11.9732,36.9473 12.1399,37.9473 10,39.5C 8.27165,38.6477 8.10498,37.6477 9.5,36.5 Z"/></g>
<g><path style="opacity:0.871" fill="#f19101" d="M 121.5,40.5 C 121.833,40.5 122.167,40.5 122.5,40.5C 111.711,50.0592 99.044,56.2259 84.5,59C 61.2382,62.9008 39.2382,59.2341 18.5,48C 20.0414,46.6288 21.3747,45.1288 22.5,43.5C 23.1667,43.5 23.5,43.1667 23.5,42.5C 56.4883,55.0195 89.155,54.3529 121.5,40.5 Z"/></g>
<g><path style="opacity:0.635" fill="#000000" d="M 121.5,46.5 C 127.038,45.262 130.038,47.4287 130.5,53C 130.241,54.2613 129.574,55.2613 128.5,56C 126.19,56.4966 123.857,56.6633 121.5,56.5C 121.5,53.1667 121.5,49.8333 121.5,46.5 Z M 124.5,48.5 C 125.289,48.7828 125.956,49.2828 126.5,50C 125.184,50.5281 124.517,50.0281 124.5,48.5 Z M 124.5,52.5 C 127.001,52.5109 127.168,53.1776 125,54.5C 124.536,53.9056 124.369,53.2389 124.5,52.5 Z"/></g>
<g><path style="opacity:0.602" fill="#000000" d="M 136.5,46.5 C 140.192,45.9712 143.358,46.9712 146,49.5C 146.576,53.9302 144.576,56.2636 140,56.5C 136.212,56.6938 133.712,55.0271 132.5,51.5C 133.16,49.1853 134.493,47.5186 136.5,46.5 Z M 139.5,48.5 C 143.473,50.4603 143.473,52.4603 139.5,54.5C 135.561,52.4093 135.561,50.4093 139.5,48.5 Z"/></g>
<g><path style="opacity:0.628" fill="#000000" d="M 152.5,46.5 C 156.192,45.9712 159.358,46.9712 162,49.5C 162.551,54.1225 160.384,56.4558 155.5,56.5C 147.955,54.7908 146.955,51.4574 152.5,46.5 Z M 154.5,48.5 C 159.197,49.8743 159.531,51.8743 155.5,54.5C 151.867,53.0593 151.534,51.0593 154.5,48.5 Z"/></g>
<g><path style="opacity:0.608" fill="#000000" d="M 165.5,46.5 C 166.5,46.5 167.5,46.5 168.5,46.5C 168.443,50.1331 169.443,50.2998 171.5,47C 172.944,46.2195 174.277,46.3861 175.5,47.5C 173.833,48.5 172.5,49.8333 171.5,51.5C 172.833,52.8333 174.167,54.1667 175.5,55.5C 174.833,55.8333 174.167,56.1667 173.5,56.5C 171.964,55.7515 170.631,54.7515 169.5,53.5C 168.614,54.325 168.281,55.325 168.5,56.5C 167.5,56.5 166.5,56.5 165.5,56.5C 165.5,53.1667 165.5,49.8333 165.5,46.5 Z"/></g>
<g><path style="opacity:0.592" fill="#000000" d="M 184.5,46.5 C 187.491,46.3297 189.491,47.663 190.5,50.5C 191.36,48.0693 193.027,46.736 195.5,46.5C 196.12,52.9171 197.453,53.0837 199.5,47C 200.635,46.2506 201.635,46.4173 202.5,47.5C 201.167,50.1667 199.833,52.8333 198.5,55.5C 197.675,56.3857 196.675,56.719 195.5,56.5C 195.049,50.5048 193.716,50.1714 191.5,55.5C 190.675,56.3857 189.675,56.719 188.5,56.5C 187.708,52.9217 186.375,49.5884 184.5,46.5 Z"/></g>
<g><path style="opacity:0.629" fill="#000000" d="M 205.5,46.5 C 207.857,46.3367 210.19,46.5034 212.5,47C 215.064,48.8508 215.064,50.6841 212.5,52.5C 213.313,53.8139 214.313,54.9805 215.5,56C 212.196,57.0419 210.029,55.8753 209,52.5C 208.51,53.7932 208.343,55.1266 208.5,56.5C 207.5,56.5 206.5,56.5 205.5,56.5C 205.5,53.1667 205.5,49.8333 205.5,46.5 Z M 208.5,48.5 C 210.337,48.6395 210.67,49.3061 209.5,50.5C 208.702,50.0431 208.369,49.3764 208.5,48.5 Z"/></g>
<g><path style="opacity:0.517" fill="#000000" d="M 217.5,46.5 C 218.833,46.5 220.167,46.5 221.5,46.5C 221.5,49.8333 221.5,53.1667 221.5,56.5C 220.167,56.5 218.833,56.5 217.5,56.5C 217.5,53.1667 217.5,49.8333 217.5,46.5 Z"/></g>
<g><path style="opacity:0.511" fill="#000000" d="M 223.5,46.5 C 226.833,46.5 230.167,46.5 233.5,46.5C 233.646,48.9424 232.813,49.6091 231,48.5C 230.503,51.146 230.336,53.8127 230.5,56.5C 229.167,56.5 227.833,56.5 226.5,56.5C 226.664,53.8127 226.497,51.146 226,48.5C 224.187,49.6091 223.354,48.9424 223.5,46.5 Z"/></g>
<g><path style="opacity:0.539" fill="#000000" d="M 235.5,46.5 C 238.5,46.5 241.5,46.5 244.5,46.5C 244.719,47.675 244.386,48.675 243.5,49.5C 242.109,48.3554 240.776,48.3554 239.5,49.5C 244.674,51.27 244.341,52.4367 238.5,53C 240.473,53.4955 242.473,53.6621 244.5,53.5C 244.5,54.5 244.5,55.5 244.5,56.5C 241.5,56.5 238.5,56.5 235.5,56.5C 235.5,53.1667 235.5,49.8333 235.5,46.5 Z"/></g>
<g><path style="opacity:0.581" fill="#000000" d="M 247.5,46.5 C 251.64,45.7146 254.973,46.8812 257.5,50C 254.956,51.7748 254.956,53.6082 257.5,55.5C 255.091,56.7219 253.258,56.0553 252,53.5C 251.517,54.448 251.351,55.448 251.5,56.5C 250.167,56.5 248.833,56.5 247.5,56.5C 247.5,53.1667 247.5,49.8333 247.5,46.5 Z M 251.5,48.5 C 252.289,48.7828 252.956,49.2828 253.5,50C 252.184,50.5281 251.517,50.0281 251.5,48.5 Z"/></g>
<g><path style="opacity:0.603" fill="#000000" d="M 269.5,47.5 C 269.5,48.1667 269.5,48.8333 269.5,49.5C 262.945,48.6327 262.945,49.2994 269.5,51.5C 269.5,52.5 269.5,53.5 269.5,54.5C 265.798,57.4032 262.464,57.0699 259.5,53.5C 261.705,53.0341 263.705,53.0341 265.5,53.5C 264.086,52.376 262.586,51.376 261,50.5C 260.251,49.365 260.417,48.365 261.5,47.5C 264.16,46.2974 266.827,46.2974 269.5,47.5 Z"/></g>
</svg>
