<?xml version="1.0" encoding="UTF-8"?>
<!DOCTYPE svg PUBLIC "-//W3C//DTD SVG 1.1//EN" "http://www.w3.org/Graphics/SVG/1.1/DTD/svg11.dtd">
<svg xmlns="http://www.w3.org/2000/svg" version="1.1" width="150px" height="150px" style="shape-rendering:geometricPrecision; text-rendering:geometricPrecision; image-rendering:optimizeQuality; fill-rule:evenodd; clip-rule:evenodd" xmlns:xlink="http://www.w3.org/1999/xlink">
<g><path style="opacity:1" fill="#000000" d="M 217.5,29.5 C 218.496,29.4142 219.329,29.7476 220,30.5C 234.821,89.1167 249.321,147.783 263.5,206.5C 202.854,216.122 144.52,208.455 88.5,183.5C 83.098,164.958 78.098,146.291 73.5,127.5C 73.6082,126.558 73.9415,125.725 74.5,125C 122.343,93.3037 170.01,61.4703 217.5,29.5 Z"/></g>
<g><path style="opacity:0.947" fill="#f09101" d="M 273.5,55.5 C 274.833,55.5 276.167,55.5 277.5,55.5C 277.833,104.838 277.5,154.171 276.5,203.5C 274.358,204.601 272.192,205.601 270,206.5C 258.2,161.302 246.7,115.969 235.5,70.5C 248.232,65.4819 260.899,60.4819 273.5,55.5 Z"/></g>
<g><path style="opacity:0.97" fill="#e37200" d="M 371.5,73.5 C 398.074,73.1718 424.574,73.5052 451,74.5C 451.831,81.1915 451.664,87.8582 450.5,94.5C 433.877,95.3192 417.211,95.8192 400.5,96C 399.167,102.333 399.167,108.667 400.5,115C 416.177,115.167 431.844,115.667 447.5,116.5C 448.833,122.833 448.833,129.167 447.5,135.5C 432.178,136.333 416.844,136.833 401.5,137C 400.217,140.064 399.55,143.397 399.5,147C 399.519,150.418 399.853,153.751 400.5,157C 417.167,157.333 433.833,157.667 450.5,158C 451.811,164.777 451.811,171.61 450.5,178.5C 423.97,179.83 397.47,179.83 371,178.5C 370.174,143.429 370.341,108.429 371.5,73.5 Z"/></g>
<g><path style="opacity:0.96" fill="#e37200" d="M 478.5,73.5 C 488.083,73.1816 497.583,73.5149 507,74.5C 507.333,101.5 507.667,128.5 508,155.5C 523.426,156.325 538.926,156.825 554.5,157C 555,157.5 555.5,158 556,158.5C 556.667,164.833 556.667,171.167 556,177.5C 555.5,178 555,178.5 554.5,179C 529.124,179.824 503.791,179.657 478.5,178.5C 477.174,143.433 477.174,108.433 478.5,73.5 Z"/></g>
<g><path style="opacity:0.962" fill="#e37200" d="M 572.5,73.5 C 582.416,73.181 592.25,73.5144 602,74.5C 602.829,109.405 602.662,144.238 601.5,179C 591.589,179.818 581.756,179.651 572,178.5C 571.174,143.429 571.341,108.429 572.5,73.5 Z"/></g>
<g><path style="opacity:0.97" fill="#e37200" d="M 619.5,73.5 C 650.502,73.3334 681.502,73.5 712.5,74C 713,74.5 713.5,75 714,75.5C 714.795,82.2177 714.628,88.8843 713.5,95.5C 703.136,96.1889 692.803,96.8556 682.5,97.5C 681.667,124.16 681.167,150.827 681,177.5C 680.5,178 680,178.5 679.5,179C 670.255,179.817 661.089,179.65 652,178.5C 651.667,151.833 651.333,125.167 651,98.5C 650.5,98 650,97.5 649.5,97C 639.172,96.5002 628.839,96.3335 618.5,96.5C 618.201,88.747 618.534,81.0804 619.5,73.5 Z"/></g>
<g><path style="opacity:0.967" fill="#e37200" d="M 731.5,73.5 C 757.842,73.1669 784.175,73.5002 810.5,74.5C 811.833,81.1667 811.833,87.8333 810.5,94.5C 793.843,95.3329 777.177,95.8329 760.5,96C 759.522,102.41 759.189,108.91 759.5,115.5C 775.17,115.333 790.837,115.5 806.5,116C 807.833,123 807.833,130 806.5,137C 790.837,137.5 775.17,137.667 759.5,137.5C 759.5,144.167 759.5,150.833 759.5,157.5C 776.17,157.333 792.837,157.5 809.5,158C 810,158.5 810.5,159 811,159.5C 811.81,166.082 811.643,172.582 810.5,179C 783.928,179.828 757.428,179.661 731,178.5C 730.174,143.429 730.341,108.429 731.5,73.5 Z"/></g>
<g><path style="opacity:1" fill="#000000" d="M 316.5,80.5 C 317.5,80.5 318.5,80.5 319.5,80.5C 310.512,120.617 300.512,160.451 289.5,200C 287.187,200.662 284.854,201.162 282.5,201.5C 282.5,163.5 282.5,125.5 282.5,87.5C 294.004,85.3998 305.338,83.0665 316.5,80.5 Z"/></g>
<g><path style="opacity:0.998" fill="#000000" d="M 1.5,139.5 C 13.2252,147.193 25.8919,153.027 39.5,157C 44.2018,157.172 48.8685,157.672 53.5,158.5C 57.4355,168.567 63.4355,177.067 71.5,184C 64.1667,192 56.8333,200 49.5,208C 48.8333,208.667 48.1667,208.667 47.5,208C 39.4006,200.531 30.2339,194.698 20,190.5C 20.3259,178.138 17.6592,166.471 12,155.5C 8.23057,150.281 4.73057,144.947 1.5,139.5 Z M 29.5,164.5 C 36.3295,163.828 39.1628,166.828 38,173.5C 32.5502,179.128 28.3835,178.295 25.5,171C 25.7225,168.038 27.0558,165.871 29.5,164.5 Z"/></g>
<g><path style="opacity:0.96" fill="#f09101" d="M 371.5,181.5 C 372.525,181.897 372.692,182.563 372,183.5C 284.16,265.57 186.66,278.737 79.5,223C 72.4006,219.054 65.7339,214.554 59.5,209.5C 64.4797,203.353 69.6463,197.353 75,191.5C 164.394,235.182 254.56,236.682 345.5,196C 354.713,191.899 363.38,187.066 371.5,181.5 Z"/></g>
<g><path style="opacity:0.854" fill="#000000" d="M 586.5,204.5 C 590.717,211.102 594.384,218.102 597.5,225.5C 600.271,219.623 602.771,213.623 605,207.5C 607.737,206.39 610.571,206.223 613.5,207C 608.329,218.517 603.163,230.017 598,241.5C 594.349,234.198 590.682,226.864 587,219.5C 583.768,226.964 580.268,234.297 576.5,241.5C 571.119,230.367 566.119,219.034 561.5,207.5C 564.372,206.217 567.205,206.217 570,207.5C 572.137,213.579 574.471,219.579 577,225.5C 580.71,218.746 583.877,211.746 586.5,204.5 Z"/></g>
<g><path style="opacity:0.846" fill="#000000" d="M 799.5,205.5 C 806.056,205.113 811.389,207.446 815.5,212.5C 812.39,216.803 809.39,216.97 806.5,213C 802.814,210.562 799.814,211.228 797.5,215C 801.064,218.618 805.397,220.951 810.5,222C 816.574,229.539 815.24,235.539 806.5,240C 798.167,241.498 791.833,238.665 787.5,231.5C 788.874,230.289 790.374,229.289 792,228.5C 794.489,230.319 796.989,232.152 799.5,234C 802.636,235.041 805.136,234.207 807,231.5C 807.711,229.633 807.211,228.133 805.5,227C 799.847,225.46 795.014,222.627 791,218.5C 789.965,211.692 792.798,207.359 799.5,205.5 Z"/></g>
<g><path style="opacity:0.892" fill="#000000" d="M 369.5,206.5 C 376.346,206.125 383.013,206.958 389.5,209C 393.63,213.682 393.296,218.015 388.5,222C 394.467,225.392 395.967,230.226 393,236.5C 392.097,237.701 390.931,238.535 389.5,239C 382.924,240.377 376.257,240.877 369.5,240.5C 369.5,229.167 369.5,217.833 369.5,206.5 Z M 376.5,212.5 C 378.857,212.337 381.19,212.503 383.5,213C 386.167,215 386.167,217 383.5,219C 381.323,220.202 378.989,220.702 376.5,220.5C 376.5,217.833 376.5,215.167 376.5,212.5 Z M 375.5,224.5 C 378.518,224.335 381.518,224.502 384.5,225C 387.737,227.419 388.07,230.085 385.5,233C 382.207,233.826 378.874,234.326 375.5,234.5C 375.5,231.167 375.5,227.833 375.5,224.5 Z"/></g>
<g><path style="opacity:0.88" fill="#000000" d="M 417.5,206.5 C 436.694,204.521 444.528,212.854 441,231.5C 435.006,240.049 426.84,242.883 416.5,240C 406.422,235.099 402.922,227.266 406,216.5C 408.566,211.645 412.399,208.311 417.5,206.5 Z M 419.5,212.5 C 430.258,211.113 435.425,215.779 435,226.5C 430.613,234.407 424.446,236.241 416.5,232C 410.474,224.347 411.474,217.847 419.5,212.5 Z"/></g>
<g><path style="opacity:0.875" fill="#000000" d="M 465.5,206.5 C 484.694,204.521 492.528,212.854 489,231.5C 483.006,240.049 474.84,242.883 464.5,240C 454.429,235.126 450.929,227.293 454,216.5C 456.194,211.171 460.027,207.838 465.5,206.5 Z M 467.5,212.5 C 477.645,211.132 482.812,215.465 483,225.5C 479.166,234.223 472.999,236.389 464.5,232C 458.51,224.422 459.51,217.922 467.5,212.5 Z"/></g>
<g><path style="opacity:0.833" fill="#000000" d="M 502.5,206.5 C 505.167,206.5 507.833,206.5 510.5,206.5C 510.335,210.182 510.501,213.848 511,217.5C 514.5,214 518,210.5 521.5,207C 524.833,206.333 528.167,206.333 531.5,207C 526.318,212.015 521.318,217.181 516.5,222.5C 521.685,227.85 526.685,233.35 531.5,239C 528.5,239.667 525.5,239.667 522.5,239C 518.298,235.133 514.465,230.967 511,226.5C 510.501,230.821 510.334,235.154 510.5,239.5C 507.833,239.5 505.167,239.5 502.5,239.5C 502.5,228.5 502.5,217.5 502.5,206.5 Z"/></g>
<g><path style="opacity:0.861" fill="#000000" d="M 623.5,206.5 C 629.509,206.334 635.509,206.501 641.5,207C 647.795,209.425 649.962,213.925 648,220.5C 646.357,222.977 644.524,225.31 642.5,227.5C 645.309,231.477 648.309,235.31 651.5,239C 648.5,239.667 645.5,239.667 642.5,239C 639.642,235.642 636.975,232.142 634.5,228.5C 633.311,227.571 631.978,227.238 630.5,227.5C 630.5,231.5 630.5,235.5 630.5,239.5C 628.167,239.5 625.833,239.5 623.5,239.5C 623.5,228.5 623.5,217.5 623.5,206.5 Z M 630.5,211.5 C 635.603,210.718 639.269,212.551 641.5,217C 641.241,218.261 640.574,219.261 639.5,220C 636.607,221.149 633.607,221.649 630.5,221.5C 630.5,218.167 630.5,214.833 630.5,211.5 Z"/></g>
<g><path style="opacity:0.921" fill="#000000" d="M 661.5,206.5 C 663.833,206.5 666.167,206.5 668.5,206.5C 668.5,217.5 668.5,228.5 668.5,239.5C 666.167,239.5 663.833,239.5 661.5,239.5C 661.5,228.5 661.5,217.5 661.5,206.5 Z"/></g>
<g><path style="opacity:0.883" fill="#000000" d="M 678.5,206.5 C 687.167,206.5 695.833,206.5 704.5,206.5C 704.5,208.5 704.5,210.5 704.5,212.5C 701.5,212.5 698.5,212.5 695.5,212.5C 695.5,221.5 695.5,230.5 695.5,239.5C 693.167,239.5 690.833,239.5 688.5,239.5C 688.5,230.5 688.5,221.5 688.5,212.5C 685.167,212.5 681.833,212.5 678.5,212.5C 678.5,210.5 678.5,208.5 678.5,206.5 Z"/></g>
<g><path style="opacity:0.888" fill="#000000" d="M 715.5,206.5 C 723.167,206.5 730.833,206.5 738.5,206.5C 738.5,208.5 738.5,210.5 738.5,212.5C 733.167,212.5 727.833,212.5 722.5,212.5C 722.5,214.833 722.5,217.167 722.5,219.5C 727.5,219.5 732.5,219.5 737.5,219.5C 737.5,221.167 737.5,222.833 737.5,224.5C 732.5,224.5 727.5,224.5 722.5,224.5C 722.5,227.833 722.5,231.167 722.5,234.5C 727.833,234.5 733.167,234.5 738.5,234.5C 738.5,236.167 738.5,237.833 738.5,239.5C 730.833,239.5 723.167,239.5 715.5,239.5C 715.5,228.5 715.5,217.5 715.5,206.5 Z"/></g>
<g><path style="opacity:0.889" fill="#000000" d="M 752.5,206.5 C 758.176,206.334 763.843,206.501 769.5,207C 776.187,209.581 778.354,214.414 776,221.5C 774.167,223.333 772.333,225.167 770.5,227C 773.621,230.743 776.621,234.576 779.5,238.5C 776.554,239.655 773.554,239.821 770.5,239C 767.877,235.588 765.377,232.088 763,228.5C 761.989,227.663 760.822,227.33 759.5,227.5C 759.5,231.5 759.5,235.5 759.5,239.5C 757.167,239.5 754.833,239.5 752.5,239.5C 752.5,228.5 752.5,217.5 752.5,206.5 Z M 759.5,211.5 C 764.295,210.563 767.628,212.23 769.5,216.5C 767.628,220.77 764.295,222.437 759.5,221.5C 759.5,218.167 759.5,214.833 759.5,211.5 Z"/></g>
</svg>
