<?xml version="1.0" encoding="UTF-8"?>
<svg version="1.1" xmlns="http://www.w3.org/2000/svg" width="196" height="69">
<path d="M0 0 C0.99 0.33 1.98 0.66 3 1 C3.495 4.96 3.495 4.96 4 9 C7.96 8.01 11.92 7.02 16 6 C16 18.21 16 30.42 16 43 C1.63392494 45.05229644 -11.13452807 44.42274658 -25 40 C-25.92425781 39.75894531 -26.84851563 39.51789062 -27.80078125 39.26953125 C-31.08908504 37.3713097 -31.37659785 35.14476692 -32.375 31.5625 C-32.71273437 30.40878906 -33.05046875 29.25507812 -33.3984375 28.06640625 C-34 25 -34 25 -33 22 C-30.63074016 20.18128752 -28.27363199 18.50650918 -25.7890625 16.859375 C-25.06512299 16.37293518 -24.34118347 15.88649536 -23.5953064 15.38531494 C-22.0629929 14.35926243 -20.52788575 13.33737162 -18.99023438 12.31933594 C-16.63257996 10.75502931 -14.28871099 9.17149607 -11.9453125 7.5859375 C-10.45652409 6.59255761 -8.96696581 5.60033036 -7.4765625 4.609375 C-6.77334869 4.13240173 -6.07013489 3.65542847 -5.34561157 3.16400146 C-3.61393659 2.02879791 -1.81116092 1.0035345 0 0 Z M5 11 C6 13 6 13 6 13 Z M6 15 C7 17 7 17 7 17 Z M7 19 C8 21 8 21 8 21 Z M8 23 C9 25 9 25 9 25 Z M9 27 C10 29 10 29 10 29 Z " fill="#FFFFFF" transform="translate(51,7)"/>
<path d="M0 0 C3.114375 -0.020625 6.22875 -0.04125 9.4375 -0.0625 C10.91174438 -0.07615601 10.91174438 -0.07615601 12.41577148 -0.09008789 C13.18477783 -0.09258545 13.95378418 -0.09508301 14.74609375 -0.09765625 C15.53685303 -0.10289307 16.3276123 -0.10812988 17.14233398 -0.11352539 C19 0 19 0 20 1 C20 2.65 20 4.3 20 6 C16.04 6.33 12.08 6.66 8 7 C8 7.99 8 8.98 8 10 C11.63 10.33 15.26 10.66 19 11 C19 12.65 19 14.3 19 16 C15.37 16.33 11.74 16.66 8 17 C8 17.99 8 18.98 8 20 C11.96 20.33 15.92 20.66 20 21 C20 22.65 20 24.3 20 26 C18.13920161 27.86079839 15.4944478 27.03511838 13.02050781 27.03564453 C4.63574465 27.12725398 -0.26700045 27.79360251 -6.5078125 33.796875 C-9.45725684 36.40422078 -12.61983245 38.14839417 -16.125 39.875 C-17.24132812 40.42929687 -18.35765625 40.98359375 -19.5078125 41.5546875 C-32.12785887 46.7777492 -47.22033864 46.81937815 -60 42 C-64.77738914 39.87921392 -69.40235909 37.48245404 -74 35 C-74 31 -74 31 -72 29 C-67.03389369 29.50289684 -62.3043842 31.53745289 -57.61523438 33.18359375 C-40.63668329 39.00973615 -22.6020958 36.35437207 -6.5234375 29.0859375 C-4 28 -4 28 0 27 C0 18.09 0 9.18 0 0 Z " fill="#F19101" transform="translate(89,17)"/>
<path d="M0 0 C6.6 0 13.2 0 20 0 C20 1.98 20 3.96 20 6 C16.04 6 12.08 6 8 6 C8 7.65 8 9.3 8 11 C11.63 11 15.26 11 19 11 C19 12.65 19 14.3 19 16 C15.37 16 11.74 16 8 16 C8 17.65 8 19.3 8 21 C11.96 21 15.92 21 20 21 C20 22.98 20 24.96 20 27 C13.4 27 6.8 27 0 27 C0 18.09 0 9.18 0 0 Z " fill="#E47200" transform="translate(175,17)"/>
<path d="M0 0 C3.14581423 -0.02888514 6.29159469 -0.04675923 9.4375 -0.0625 C10.33533203 -0.07087891 11.23316406 -0.07925781 12.15820312 -0.08789062 C13.01220703 -0.09111328 13.86621094 -0.09433594 14.74609375 -0.09765625 C15.93223267 -0.10551147 15.93223267 -0.10551147 17.14233398 -0.11352539 C19 0 19 0 20 1 C20 2.65 20 4.3 20 6 C14.06 6.495 14.06 6.495 8 7 C8 7.99 8 8.98 8 10 C11.63 10.33 15.26 10.66 19 11 C19 12.65 19 14.3 19 16 C15.37 16.33 11.74 16.66 8 17 C8 17.99 8 18.98 8 20 C11.96 20.33 15.92 20.66 20 21 C20 22.65 20 24.3 20 26 C18.4779041 27.5220959 17.11789918 27.12959521 15 27.1328125 C14.195625 27.13410156 13.39125 27.13539062 12.5625 27.13671875 C11.716875 27.13285156 10.87125 27.12898438 10 27.125 C9.154375 27.12886719 8.30875 27.13273437 7.4375 27.13671875 C6.633125 27.13542969 5.82875 27.13414063 5 27.1328125 C4.2575 27.13168457 3.515 27.13055664 2.75 27.12939453 C1 27 1 27 0 26 C-0.08748207 24.07332493 -0.10697334 22.14348139 -0.09765625 20.21484375 C-0.09443359 19.04501953 -0.09121094 17.87519531 -0.08789062 16.66992188 C-0.07951172 15.43822266 -0.07113281 14.20652344 -0.0625 12.9375 C-0.05798828 11.70193359 -0.05347656 10.46636719 -0.04882812 9.19335938 C-0.03699608 6.12885883 -0.02051173 3.06445279 0 0 Z " fill="#E47200" transform="translate(89,17)"/>
<path d="M0 0 C3.81248426 -0.02887236 7.6249407 -0.04675492 11.4375 -0.0625 C12.52611328 -0.07087891 13.61472656 -0.07925781 14.73632812 -0.08789062 C15.77080078 -0.09111328 16.80527344 -0.09433594 17.87109375 -0.09765625 C18.82943115 -0.10289307 19.78776855 -0.10812988 20.77514648 -0.11352539 C23 0 23 0 24 1 C24.04080783 2.99958364 24.04254356 5.00045254 24 7 C21.36 7 18.72 7 16 7 C16.00785522 7.85549438 16.00785522 7.85549438 16.01586914 8.72827148 C16.03658221 11.29800323 16.0496419 13.86771747 16.0625 16.4375 C16.07087891 17.33533203 16.07925781 18.23316406 16.08789062 19.15820312 C16.09272461 20.43920898 16.09272461 20.43920898 16.09765625 21.74609375 C16.10551147 22.93223267 16.10551147 22.93223267 16.11352539 24.14233398 C16 26 16 26 15 27 C12.69 27 10.38 27 8 27 C8 20.4 8 13.8 8 7 C5.36 7 2.72 7 0 7 C0 4.69 0 2.38 0 0 Z " fill="#E47200" transform="translate(148,17)"/>
<path d="M0 0 C2.31 0 4.62 0 7 0 C7 6.6 7 13.2 7 20 C9.6915625 19.9690625 9.6915625 19.9690625 12.4375 19.9375 C14.29166122 19.9161878 16.14712498 19.92773498 18 20 C19 21 19 21 19.125 23.5 C19 26 19 26 18 27 C16.66956375 27.0983721 15.33406656 27.13078592 14 27.1328125 C13.195625 27.13410156 12.39125 27.13539062 11.5625 27.13671875 C10.716875 27.13285156 9.87125 27.12898438 9 27.125 C8.154375 27.12886719 7.30875 27.13273437 6.4375 27.13671875 C5.633125 27.13542969 4.82875 27.13414063 4 27.1328125 C3.2575 27.13168457 2.515 27.13055664 1.75 27.12939453 C0 27 0 27 -1 26 C-1.09959621 24.15840977 -1.13080411 22.31303033 -1.1328125 20.46875 C-1.13410156 19.34855469 -1.13539062 18.22835937 -1.13671875 17.07421875 C-1.13285156 15.89472656 -1.12898438 14.71523438 -1.125 13.5 C-1.12886719 12.32050781 -1.13273437 11.14101563 -1.13671875 9.92578125 C-1.13542969 8.80558594 -1.13414063 7.68539063 -1.1328125 6.53125 C-1.13168457 5.49548828 -1.13055664 4.45972656 -1.12939453 3.39257812 C-1 1 -1 1 0 0 Z " fill="#E47200" transform="translate(115,17)"/>
<path d="M0 0 C0 12.21 0 24.42 0 37 C-0.99 37 -1.98 37 -3 37 C-4.14232219 32.4800802 -5.28157571 27.95940243 -6.41796875 23.43798828 C-6.80514226 21.89936336 -7.19315949 20.36095049 -7.58203125 18.82275391 C-8.14023244 16.61415684 -8.69541362 14.40481963 -9.25 12.1953125 C-9.42499023 11.50567413 -9.59998047 10.81603577 -9.78027344 10.10549927 C-11 5.22774341 -11 5.22774341 -11 3 C-9.54293274 2.49632243 -8.08429904 1.99717444 -6.625 1.5 C-5.81289063 1.2215625 -5.00078125 0.943125 -4.1640625 0.65625 C-2 0 -2 0 0 0 Z " fill="#F19101" transform="translate(67,13)"/>
<path d="M0 0 C2.64 0 5.28 0 8 0 C8 8.91 8 17.82 8 27 C5.36 27 2.72 27 0 27 C0 18.09 0 9.18 0 0 Z " fill="#E47200" transform="translate(137,17)"/>
<path d="M0 0 C-0.64559916 6.29459184 -1.92633991 12.25121418 -3.5 18.375 C-3.72558594 19.27605469 -3.95117188 20.17710938 -4.18359375 21.10546875 C-5.8590663 27.7181326 -5.8590663 27.7181326 -7 30 C-7.66 30 -8.32 30 -9 30 C-9 20.76 -9 11.52 -9 2 C-3 0 -3 0 0 0 Z " fill="#FFFFFF" transform="translate(77,19)"/>
<path d="M0 0 C12.74618834 3.69775785 12.74618834 3.69775785 15.8203125 6.890625 C16.875 8.8125 16.875 8.8125 18 12 C15.69 13.98 13.38 15.96 11 18 C4.49688505 14.14630225 4.49688505 14.14630225 3.16015625 11.0625 C2.85680476 9.73878442 2.59504652 8.40445551 2.38671875 7.0625 C1.91523383 4.54791376 0.99902393 2.34872564 0 0 Z M7 7 C7 7.66 7 8.32 7 9 C7.66 9 8.32 9 9 9 C9 8.34 9 7.68 9 7 C8.34 7 7.68 7 7 7 Z " fill="#F8F8F8" transform="translate(0,33)"/>
<path d="M0 0 C3.875 0.875 3.875 0.875 5 2 C5.33 1.34 5.66 0.68 6 0 C6.66 0 7.32 0 8 0 C8.66 0.66 9.32 1.32 10 2 C10.33 1.34 10.66 0.68 11 0 C11.99 0.33 12.98 0.66 14 1 C12.68 3.64 11.36 6.28 10 9 C9.34 8.67 8.68 8.34 8 8 C8 7.34 8 6.68 8 6 C7.34 6 6.68 6 6 6 C5.67 6.99 5.34 7.98 5 9 C1.9083091 6.47043472 1.09068668 3.77545388 0 0 Z " fill="#000000" transform="translate(134,49)"/>
<path d="M0 0 C2.375 0.6875 2.375 0.6875 3.375 1.6875 C3.5 4.6875 3.5 4.6875 3.375 7.6875 C2.375 8.6875 2.375 8.6875 -1.0625 8.9375 C-2.238125 8.855 -3.41375 8.7725 -4.625 8.6875 C-6.625 5.6875 -6.625 5.6875 -6.4375 3.625 C-5.07966389 0.38708313 -3.40024032 -0.40479051 0 0 Z M-2.625 2.6875 C-2.625 4.0075 -2.625 5.3275 -2.625 6.6875 C-1.635 6.6875 -0.645 6.6875 0.375 6.6875 C0.705 5.6975 1.035 4.7075 1.375 3.6875 C0.055 3.3575 -1.265 3.0275 -2.625 2.6875 Z " fill="#000000" transform="translate(114.625,49.3125)"/>
<path d="M0 0 C0.928125 0.20625 1.85625 0.4125 2.8125 0.625 C3.4375 2.9375 3.4375 2.9375 3.8125 5.625 C2.8225 7.11 2.8225 7.11 1.8125 8.625 C-1.1875 8.9375 -1.1875 8.9375 -4.1875 8.625 C-6.1875 6.625 -6.1875 6.625 -6.5 4.125 C-6.396875 3.3 -6.29375 2.475 -6.1875 1.625 C-3.1875 -0.375 -3.1875 -0.375 0 0 Z M-3.1875 2.625 C-3.5175 3.285 -3.8475 3.945 -4.1875 4.625 C-3.8575 5.285 -3.5275 5.945 -3.1875 6.625 C-1.8675 6.295 -0.5475 5.965 0.8125 5.625 C0.8125 4.635 0.8125 3.645 0.8125 2.625 C-0.5075 2.625 -1.8275 2.625 -3.1875 2.625 Z " fill="#000000" transform="translate(103.1875,49.375)"/>
<path d="M0 0 C2.31 0.33 4.62 0.66 7 1 C7 3.64 7 6.28 7 9 C4.69 9 2.38 9 0 9 C0 6.03 0 3.06 0 0 Z " fill="#000000" transform="translate(180,49)"/>
<path d="M0 0 C2.31 0.33 4.62 0.66 7 1 C6.979375 1.94875 6.95875 2.8975 6.9375 3.875 C6.77448174 6.90666283 6.77448174 6.90666283 8 9 C7.4225 8.814375 6.845 8.62875 6.25 8.4375 C3.69606643 7.7761831 3.69606643 7.7761831 0 9 C0 6.03 0 3.06 0 0 Z M3 2 C4 4 4 4 4 4 Z " fill="#000000" transform="translate(149,49)"/>
<path d="M0 0 C1.32 0.33 2.64 0.66 4 1 C6.18703385 0.62092718 6.18703385 0.62092718 8 0 C7.62875 0.7425 7.2575 1.485 6.875 2.25 C5.70484137 4.94283647 5.70484137 4.94283647 6.875 7.3125 C7.431875 8.1478125 7.431875 8.1478125 8 9 C7.4225 8.814375 6.845 8.62875 6.25 8.4375 C3.69606643 7.7761831 3.69606643 7.7761831 0 9 C0 6.03 0 3.06 0 0 Z " fill="#000000" transform="translate(120,49)"/>
<path d="M0 0 C1.98 0 3.96 0 6 0 C6.98120464 3.05263664 6.98120464 4.94736336 6 8 C4.02 8 2.04 8 0 8 C0 5.36 0 2.72 0 0 Z M3 4 C4 6 4 6 4 6 Z " fill="#000000" transform="translate(88,50)"/>
<path d="M0 0 C2.31 0 4.62 0 7 0 C6.67 1.65 6.34 3.3 6 5 C5.01 5 4.02 5 3 5 C3 5.66 3 6.32 3 7 C4.32 7 5.64 7 7 7 C7 7.66 7 8.32 7 9 C4.69 9 2.38 9 0 9 C0 6.03 0 3.06 0 0 Z " fill="#000000" transform="translate(171,49)"/>
<path d="M0 0 C1.65 0.33 3.3 0.66 5 1 C5 4.11257569 4.82638376 6.10765685 4 9 C2.35 9 0.7 9 -1 9 C-1.33 8.01 -1.66 7.02 -2 6 C-1.01 6 -0.02 6 1 6 C0.01 5.34 -0.98 4.68 -2 4 C-1.34 2.68 -0.68 1.36 0 0 Z " fill="#000000" transform="translate(191,49)"/>
<path d="M0 0 C2.31 0 4.62 0 7 0 C7 0.66 7 1.32 7 2 C6.01 2 5.02 2 4 2 C4 4.31 4 6.62 4 9 C3.34 9 2.68 9 2 9 C2 6.69 2 4.38 2 2 C1.34 2 0.68 2 0 2 C0 1.34 0 0.68 0 0 Z " fill="#000000" transform="translate(163,49)"/>
<path d="M0 0 C0.99 0 1.98 0 3 0 C3 2.97 3 5.94 3 9 C2.01 9 1.02 9 0 9 C0 6.03 0 3.06 0 0 Z " fill="#000000" transform="translate(158,49)"/>
</svg>
