<?xml version="1.0" standalone="no"?>
<!DOCTYPE svg PUBLIC "-//W3C//DTD SVG 20010904//EN"
 "http://www.w3.org/TR/2001/REC-SVG-20010904/DTD/svg10.dtd">
<svg version="1.0" xmlns="http://www.w3.org/2000/svg"
 width="100.000000pt" height="100.000000pt" viewBox="0 0 100.000000 100.000000"
 preserveAspectRatio="xMidYMid meet">

<g transform="translate(0.000000,100.000000) scale(0.100000,-0.100000)"
fill="#000000" stroke="none">
<path d="M460 945 c-95 -34 -109 -58 -108 -187 1 -86 4 -103 20 -117 11 -9 29
-36 40 -61 11 -25 29 -57 39 -72 29 -41 25 -64 -13 -72 -39 -8 -42 -4 -90 94
-18 38 -40 71 -49 73 -12 3 -18 22 -23 68 -4 35 -10 73 -12 85 -6 24 -151 111
-164 98 -4 -5 -18 -44 -30 -87 l-21 -78 55 -72 c32 -42 51 -74 45 -78 -9 -5
29 -146 62 -227 5 -13 9 -69 9 -126 0 -90 3 -107 21 -130 l21 -27 136 3 c133
3 137 4 135 24 -4 34 28 35 127 3 102 -33 192 -38 228 -13 21 14 22 22 22 155
0 197 -8 208 -159 229 -40 6 -77 13 -82 16 -15 9 -10 40 10 58 20 18 35 51 45
97 3 15 14 29 26 32 11 3 25 17 32 32 10 23 9 32 -5 57 -9 16 -17 47 -17 69 0
100 -91 181 -199 178 -20 -1 -65 -11 -101 -24z m190 -30 c28 -15 61 -54 73
-87 6 -16 0 -18 -47 -18 -48 0 -59 4 -102 40 -42 35 -55 40 -89 38 l-40 -3 -6
-56 c-7 -63 -14 -79 -34 -79 -17 0 -29 51 -20 89 8 38 24 50 99 78 66 24 117
24 166 -2z m-108 -84 c46 -39 71 -51 112 -51 25 0 36 -4 36 -15 0 -11 -11 -15
-40 -15 -21 0 -51 -5 -65 -12 -19 -9 -28 -9 -37 0 -7 7 -29 12 -49 12 l-37 0
5 43 c9 79 21 85 75 38z m-308 -96 c3 -11 8 -49 12 -85 6 -64 6 -66 -20 -78
-15 -7 -29 -12 -31 -12 -2 0 -27 30 -55 67 -46 61 -51 72 -45 103 4 19 10 39
15 43 8 9 37 -62 42 -103 2 -17 10 -26 26 -28 27 -4 41 23 24 47 -19 27 -39
65 -47 89 l-7 24 41 -24 c22 -12 42 -32 45 -43z m493 33 c-3 -7 -5 -2 -5 12 0
14 2 19 5 13 2 -7 2 -19 0 -25z m-317 -78 c0 -31 -16 -41 -26 -15 -5 13 11 45
22 45 2 0 4 -13 4 -30z m110 15 c0 -11 -11 -15 -40 -15 -38 0 -49 8 -33 23 3
4 21 7 40 7 23 0 33 -5 33 -15z m170 0 c0 -16 -64 -22 -74 -6 -9 14 5 21 41
21 23 0 33 -5 33 -15z m58 -21 c-5 -28 -28 -29 -28 -1 0 13 3 27 7 31 10 10
25 -10 21 -30z m-163 -4 c5 -16 15 -20 56 -20 l49 0 0 -39 c0 -48 -34 -100
-80 -123 -68 -34 -137 7 -161 94 -15 57 -8 68 47 68 37 0 47 4 51 20 3 11 11
20 18 20 8 0 17 -9 20 -20z m-285 -134 c0 -7 -19 -20 -42 -29 -59 -22 -70 -24
-75 -11 -2 6 20 20 49 32 64 25 68 26 68 8z m73 -143 c51 -108 69 -153 61
-153 -2 0 -31 13 -63 30 -42 21 -60 36 -65 55 -4 14 -13 25 -21 25 -17 0 -19
-23 -5 -51 9 -16 7 -19 -9 -19 -17 0 -25 15 -45 82 -14 45 -25 83 -23 84 5 5
103 43 113 43 6 1 31 -43 57 -96z m264 30 c9 -19 8 -26 -10 -38 -28 -19 -87
-19 -114 0 -18 13 -20 20 -12 38 9 19 18 22 68 22 50 0 59 -3 68 -22z m-150
-60 c27 -20 46 -27 83 -27 44 0 59 6 115 48 6 5 42 5 80 1 77 -8 115 -35 115
-81 0 -26 -2 -26 -42 -21 -32 4 -53 0 -92 -20 -45 -23 -64 -26 -159 -27 l-108
-1 -29 73 c-17 40 -30 75 -30 78 0 13 36 1 67 -23z m-106 -133 c30 -16 87 -25
247 -41 273 -26 252 -20 252 -72 0 -24 -5 -48 -12 -55 -23 -23 -98 -12 -255
38 -201 65 -284 83 -318 70 -15 -6 -28 -10 -31 -10 -10 0 -3 79 9 83 27 11 70
6 108 -13z m483 14 c9 -3 16 -15 16 -25 0 -15 -7 -19 -37 -19 -21 0 -55 3 -77
7 l-39 6 34 18 c35 19 75 24 103 13z m-450 -119 c95 -25 97 -30 18 -54 -115
-35 -172 -28 -172 20 0 49 53 60 154 34z"/>
<path d="M505 582 c-3 -8 -5 -16 -5 -18 0 -2 29 -4 65 -4 55 0 65 3 65 18 0
14 -10 17 -60 17 -41 0 -61 -4 -65 -13z"/>
<path d="M253 405 c-7 -20 0 -27 20 -19 9 3 13 12 10 20 -7 19 -22 18 -30 -1z"/>
</g>
</svg>
