<?xml version="1.0" standalone="no"?>
<!DOCTYPE svg PUBLIC "-//W3C//DTD SVG 20010904//EN"
 "http://www.w3.org/TR/2001/REC-SVG-20010904/DTD/svg10.dtd">
<svg version="1.0" xmlns="http://www.w3.org/2000/svg"
 width="100.000000pt" height="100.000000pt" viewBox="0 0 100.000000 100.000000"
 preserveAspectRatio="xMidYMid meet">

<g transform="translate(0.000000,100.000000) scale(0.100000,-0.100000)"
fill="#000000" stroke="none">
<path d="M270 936 l0 -65 -132 -3 -133 -3 -3 -433 -2 -432 257 2 258 3 5 370
5 370 94 -362 c52 -199 97 -367 101 -374 6 -9 38 -4 133 21 69 18 131 36 138
40 9 6 -12 100 -89 396 -56 213 -105 391 -109 395 -5 5 -67 -7 -138 -26 -72
-19 -131 -35 -132 -35 -1 0 -4 44 -5 98 l-3 97 -122 3 -123 3 0 -65z m210 -1
l0 -35 -90 0 -90 0 0 35 0 35 90 0 90 0 0 -35z m0 -90 c0 -25 -1 -25 -90 -25
-89 0 -90 0 -90 25 0 25 1 25 90 25 89 0 90 0 90 -25z m-212 -37 c-3 -22 -6
-23 -118 -23 -112 0 -115 1 -118 23 -3 22 -2 22 118 22 120 0 121 0 118 -22z
m512 -16 c8 -30 7 -32 -28 -41 -20 -6 -68 -18 -105 -28 -60 -15 -69 -16 -78
-3 -5 8 -8 24 -7 34 2 16 23 25 103 46 55 15 101 26 103 25 1 -1 7 -16 12 -33z
m-300 -302 l0 -290 -90 0 -90 0 0 290 0 290 90 0 90 0 0 -290z m-212 13 l-3
-248 -115 0 -115 0 -3 248 -2 247 120 0 120 0 -2 -247z m530 205 c-3 -7 -50
-24 -106 -39 -79 -21 -102 -24 -106 -14 -3 9 19 20 77 35 45 12 87 23 92 25
23 8 46 4 43 -7z m61 -221 c24 -94 46 -176 48 -182 3 -9 -205 -70 -212 -63 -6
6 -96 360 -93 363 5 5 182 53 198 54 11 1 26 -43 59 -172z m67 -253 c4 -14 3
-29 -2 -34 -5 -4 -52 -19 -104 -33 -100 -26 -110 -25 -110 19 0 17 14 24 98
46 53 15 100 27 104 27 4 1 11 -11 14 -25z m-658 -41 c3 -23 2 -23 -117 -23
-111 0 -121 2 -121 18 0 10 3 22 7 26 4 3 57 5 117 4 106 -3 111 -4 114 -25z
m212 -43 c0 -19 -7 -20 -90 -20 -83 0 -90 1 -90 20 0 19 7 20 90 20 83 0 90
-1 90 -20z m474 -22 c3 -17 5 -32 4 -33 -8 -5 -211 -55 -213 -53 -1 2 -6 17
-9 34 l-7 31 93 25 c124 34 124 34 132 -4z m-686 -45 l-3 -48 -115 0 -115 0
-3 48 -3 47 121 0 121 0 -3 -47z m212 -18 l0 -35 -90 0 -90 0 0 35 0 35 90 0
90 0 0 -35z"/>
<path d="M70 615 l0 -85 80 0 80 0 0 85 0 85 -80 0 -80 0 0 -85z m130 5 l0
-50 -50 0 -50 0 0 50 0 50 50 0 50 0 0 -50z"/>
</g>
</svg>
