<?xml version="1.0" standalone="no"?>
<!DOCTYPE svg PUBLIC "-//W3C//DTD SVG 20010904//EN"
 "http://www.w3.org/TR/2001/REC-SVG-20010904/DTD/svg10.dtd">
<svg version="1.0" xmlns="http://www.w3.org/2000/svg"
 width="100.000000pt" height="100.000000pt" viewBox="0 0 100.000000 100.000000"
 preserveAspectRatio="xMidYMid meet">

<g transform="translate(0.000000,100.000000) scale(0.100000,-0.100000)"
fill="#000000" stroke="none">
<path d="M593 930 c-26 -47 -45 -71 -61 -75 -20 -5 -28 -28 -9 -26 4 1 17 1
30 1 16 0 30 14 53 57 l31 56 32 -56 c29 -50 35 -56 74 -62 84 -13 84 -12 37
-60 l-43 -43 8 -67 7 -66 -31 16 c-17 9 -31 23 -31 34 0 10 -9 26 -20 36 -29
26 -72 10 -84 -31 -6 -20 -19 -35 -38 -42 -15 -5 -28 -10 -28 -9 0 1 5 29 10
62 l10 60 -47 47 c-32 32 -42 48 -31 48 20 0 34 19 22 29 -5 4 -29 4 -53 -1
l-44 -10 58 -58 58 -59 -9 -86 c-6 -58 -6 -84 1 -81 5 2 27 11 48 20 l37 16 0
-68 c0 -63 -2 -71 -30 -97 -28 -27 -30 -33 -30 -107 l0 -79 50 -62 c44 -55 50
-67 50 -109 l0 -48 80 0 c64 0 80 3 80 15 0 12 -14 15 -66 15 l-65 0 3 27 3
28 105 0 105 0 3 -27 c3 -25 0 -28 -27 -28 -21 0 -31 -5 -31 -15 0 -11 11 -15
40 -15 l40 0 0 45 c0 25 9 68 20 97 16 43 20 77 20 180 0 118 -2 128 -20 138
-12 6 -28 10 -38 9 -9 -2 -28 3 -41 10 -12 7 -31 11 -40 8 -10 -2 -26 2 -36 9
-10 8 -29 14 -42 14 -19 0 -23 5 -23 30 0 36 0 36 51 9 23 -11 43 -18 46 -16
2 3 -1 40 -7 82 l-12 77 58 60 c64 67 63 71 -20 83 -79 11 -91 19 -127 89 -19
36 -37 66 -41 66 -4 0 -24 -31 -45 -70z m65 -408 c2 -108 5 -132 17 -132 11 0
15 11 15 39 0 39 20 68 40 56 5 -3 10 -28 10 -56 0 -37 4 -49 15 -49 10 0 15
10 15 34 0 35 21 63 40 51 5 -3 10 -26 10 -51 0 -32 4 -44 15 -44 10 0 15 10
15 29 0 16 7 35 16 42 14 11 18 10 30 -6 22 -30 18 -169 -7 -243 l-21 -62
-113 0 -113 0 -46 56 c-43 53 -46 60 -46 114 0 32 3 65 6 74 13 33 24 14 24
-39 0 -42 3 -55 15 -55 13 0 15 26 15 178 0 126 4 182 12 190 27 27 33 3 36
-126z"/>
<path d="M590 775 c0 -8 7 -15 15 -15 8 0 15 7 15 15 0 8 -7 15 -15 15 -8 0
-15 -7 -15 -15z"/>
<path d="M650 775 c0 -8 7 -15 15 -15 8 0 15 7 15 15 0 8 -7 15 -15 15 -8 0
-15 -7 -15 -15z"/>
<path d="M224 673 c-30 -57 -31 -58 -90 -69 -32 -7 -61 -12 -64 -13 -2 -1 15
-21 39 -45 l44 -45 -7 -65 c-4 -36 -5 -66 -2 -66 2 0 29 11 59 25 l56 26 50
-26 c28 -14 54 -25 59 -25 5 0 5 27 0 61 l-10 62 47 47 c51 52 51 53 -30 65
-42 7 -50 13 -74 50 -14 24 -30 50 -36 59 -8 13 -15 6 -41 -41z m56 -48 c13
-21 32 -37 48 -41 56 -12 57 -13 27 -44 -25 -26 -27 -34 -21 -76 5 -41 4 -45
-12 -39 -69 29 -71 29 -108 12 l-37 -18 6 44 c6 39 3 47 -23 72 -34 32 -31 45
10 45 30 0 65 29 76 62 7 24 9 23 34 -17z"/>
<path d="M295 282 c-16 -29 -28 -39 -60 -46 -22 -5 -42 -11 -44 -13 -3 -2 8
-16 23 -32 24 -25 28 -36 25 -75 -3 -25 -3 -46 -2 -46 1 0 18 8 38 17 36 17
39 17 106 -11 14 -6 16 0 12 41 -4 42 -2 51 21 72 14 14 26 28 26 31 0 4 -18
10 -40 14 -34 5 -43 12 -60 46 -11 22 -21 40 -23 40 -1 0 -11 -17 -22 -38z
m66 -72 c22 0 25 -13 5 -29 -7 -6 -11 -22 -8 -36 4 -24 3 -25 -21 -14 -18 8
-30 8 -46 0 -20 -11 -21 -10 -16 12 4 15 1 28 -9 36 -22 18 -20 31 4 31 11 0
25 9 32 20 l13 21 14 -21 c7 -11 22 -20 32 -20z"/>
</g>
</svg>
